<?xml version="1.0" encoding="UTF-8"?>
<svg width="32px" height="32px" viewBox="0 0 32 32" version="1.1" xmlns="http://www.w3.org/2000/svg" xmlns:xlink="http://www.w3.org/1999/xlink">
    <!-- Generator: Sketch 43.2 (39069) - http://www.bohemiancoding.com/sketch -->
    <title>svg/ic_map_poi_048</title>
    <desc>Created with Sketch.</desc>
    <defs></defs>
    <g id="Assets-white-32x32" stroke="none" stroke-width="1" fill="none" fill-rule="evenodd">
        <g id="ic_map_poi_048" fill="#ffffff">
            <path d="M24,10.333 C24,7.94 22.062,6 19.669,6 C18.12,6 16.767,6.815 16,8.036 C15.233,6.815 13.88,6 12.331,6 C9.939,6 8,7.94 8,10.333 C8,11.901 8.836,13.271 10.082,14.031 C10.349,18.204 11.224,25 13.016,25 C14.605,25 12.724,18.43 15.989,17.953 C19.254,18.43 17.422,25 19.012,25 C20.802,25 21.646,18.216 21.9,14.043 C23.156,13.284 24,11.909 24,10.333" id="Fill-2"></path>
        </g>
    </g>
</svg>