<?xml version="1.0" encoding="UTF-8"?>
<svg width="32px" height="32px" viewBox="0 0 32 32" version="1.1" xmlns="http://www.w3.org/2000/svg" xmlns:xlink="http://www.w3.org/1999/xlink">
    <!-- Generator: Sketch 43.2 (39069) - http://www.bohemiancoding.com/sketch -->
    <title>svg/ic_map_poi_031</title>
    <desc>Created with Sketch.</desc>
    <defs></defs>
    <g id="Assets-white-32x32" stroke="none" stroke-width="1" fill="none" fill-rule="evenodd">
        <g id="ic_map_poi_031" fill="#ffffff">
            <path d="M24.9873,17 L23.2803,7.998 C23.1793,7.198 22.6033,6.508 21.8663,6.194 C21.6063,6.073 21.3203,6 21.0143,6 C19.9073,6 19.0003,6.899 19.0003,8 L19.0003,8.011 L19.0003,8.014 L19.0003,17.014 L19.0003,17.015 L19.0003,25 C19.0003,26.101 19.9073,27 21.0143,27 C22.1243,27 23.0003,26.101 23.0003,25 L23.0003,19 C23.9693,18.986 25.1253,18.091 24.9873,17" id="Fill-2"></path>
            <path d="M16,5.9502 C15.447,5.9502 15,6.3982 15,6.9502 L15,11.9502 C15,12.5032 14.552,12.9502 14,12.9502 C13.447,12.9502 13,12.5032 13,11.9502 L13,6.9502 C13,6.3982 12.552,5.9502 12,5.9502 C11.447,5.9502 11,6.3982 11,6.9502 L11,11.9502 C11,12.4502 10.552,12.9502 10,12.9502 C9.447,12.9502 9,12.5032 9,11.9502 L9,6.9502 C9,6.3982 8.552,5.9502 8,5.9502 C7.447,5.9502 7,6.3982 7,6.9502 L7,12.9502 L7,14.9502 C7,16.0512 7.899,16.9502 9,16.9502 L10,16.9502 L10,25.0002 C10,26.1042 10.896,27.0002 12,27.0002 C13.105,27.0002 14,26.1042 14,25.0002 L14,16.9502 L15,16.9502 C16.1,16.9502 17,16.0512 17,14.9502 L17,12.9502 L17,6.9502 C17,6.3982 16.552,5.9502 16,5.9502" id="Fill-4"></path>
        </g>
    </g>
</svg>