<?xml version="1.0" encoding="UTF-8"?>
<svg width="32px" height="32px" viewBox="0 0 32 32" version="1.1" xmlns="http://www.w3.org/2000/svg" xmlns:xlink="http://www.w3.org/1999/xlink">
    <!-- Generator: Sketch 43.2 (39069) - http://www.bohemiancoding.com/sketch -->
    <title>svg/ic_map_poi_035</title>
    <desc>Created with Sketch.</desc>
    <defs></defs>
    <g id="Assets-white-32x32" stroke="none" stroke-width="1" fill="none" fill-rule="evenodd">
        <g id="ic_map_poi_035" fill="#ffffff">
            <path d="M15.8457,16.9541 C15.6317,17.7551 14.8097,18.2291 14.0087,18.0151 C13.2087,17.8011 12.7337,16.9781 12.9487,16.1781 C13.1617,15.3771 13.9857,14.9021 14.7847,15.1171 C15.5857,15.3321 16.0607,16.1541 15.8457,16.9541 M12.8967,20.3121 C12.6667,21.1691 11.2597,21.5361 10.5477,21.3461 C9.8367,21.1551 8.8027,20.1341 9.0327,19.2771 C9.2617,18.4211 10.2527,19.6041 10.9637,19.7951 C11.6747,19.9851 13.1257,19.4561 12.8967,20.3121 M8.1187,14.8841 C8.3327,14.0831 9.1557,13.6081 9.9557,13.8231 C10.7557,14.0371 11.2307,14.8591 11.0167,15.6601 C10.8017,16.4611 9.9797,16.9351 9.1797,16.7211 C8.3787,16.5071 7.9047,15.6831 8.1187,14.8841 M12.8877,12.5381 C10.5947,11.9241 8.6557,10.6461 7.2197,8.9691 C6.9937,9.5581 6.7927,10.1711 6.6217,10.8081 C5.0427,16.7021 6.5747,22.2341 10.0407,23.1641 C13.5077,24.0931 17.6007,20.0671 19.1797,14.1721 C19.3507,13.5351 19.4827,12.9041 19.5807,12.2811 C17.4997,13.0161 15.1817,13.1521 12.8877,12.5381" id="Fill-2"></path>
            <path d="M23.8213,16.0556 C23.0203,16.2686 22.1983,15.7936 21.9833,14.9936 C21.7683,14.1936 22.2443,13.3706 23.0443,13.1566 C23.8443,12.9426 24.6673,13.4166 24.8823,14.2166 C25.0953,15.0176 24.6213,15.8396 23.8213,16.0556 M22.1303,20.0696 C21.4193,20.2596 20.4283,21.4446 20.1993,20.5866 C19.9693,19.7306 21.0043,18.7086 21.7153,18.5186 C22.4263,18.3276 23.8333,18.6956 24.0623,19.5516 C24.2923,20.4096 22.8423,19.8786 22.1303,20.0696 M26.3783,10.1406 C26.2073,9.5036 26.0063,8.8916 25.7803,8.3026 C24.7043,9.5606 23.3443,10.5926 21.7643,11.2896 L21.5563,12.5966 C21.4433,13.3056 21.2943,14.0096 21.1113,14.6896 C20.4573,17.1306 19.4263,19.2826 18.1613,20.9996 C19.6953,22.3216 21.3903,22.9166 22.9593,22.4966 C26.4263,21.5686 27.9573,16.0356 26.3783,10.1406" id="Fill-4"></path>
        </g>
    </g>
</svg>