<?xml version="1.0" encoding="UTF-8"?>
<svg width="32px" height="32px" viewBox="0 0 32 32" version="1.1" xmlns="http://www.w3.org/2000/svg" xmlns:xlink="http://www.w3.org/1999/xlink">
    <!-- Generator: Sketch 43.2 (39069) - http://www.bohemiancoding.com/sketch -->
    <title>svg/ic_map_poi_037</title>
    <desc>Created with Sketch.</desc>
    <defs></defs>
    <g id="Assets-white-32x32" stroke="none" stroke-width="1" fill="none" fill-rule="evenodd">
        <g id="ic_map_poi_037" fill="#ffffff">
            <path d="M15,9.9956 L17,9.9956 C17,9.9956 16.065,12.1566 16.001,11.9956 C15.938,11.8346 15,9.9956 15,9.9956" id="Fill-2"></path>
            <path d="M20.037,20.9999 C20.037,23.2089 18.246,24.9999 16.037,24.9999 C13.828,24.9999 12.037,23.2089 12.037,20.9999 L12.037,16.9999 C12.037,15.5359 12.826,14.2589 14,13.5619 L14,9.9999 C14,8.8949 14.895,7.9999 16,7.9999 C17.105,7.9999 18,8.8949 18,9.9999 L18,13.5169 C19.215,14.2029 20.037,15.5049 20.037,16.9999 L20.037,20.9999 Z M19,10.9019 L19,8.9999 C19,7.3429 17.657,5.9999 16,5.9999 C14.343,5.9999 13,7.3429 13,8.9999 L13,10.9999 L8,18.9999 L11,17.0579 L11,22.8049 C11,23.8509 11.505,24.7759 12.282,25.3589 L11,25.9999 L14.195,25.9999 L17.805,25.9999 L21,25.9999 L19.719,25.3589 C20.495,24.7759 21,23.8509 21,22.8049 L21,16.8849 L24,18.9999 L19,10.9019 Z" id="Fill-4"></path>
        </g>
    </g>
</svg>