<?xml version="1.0" encoding="UTF-8"?>
<svg width="32px" height="32px" viewBox="0 0 32 32" version="1.1" xmlns="http://www.w3.org/2000/svg" xmlns:xlink="http://www.w3.org/1999/xlink">
    <!-- Generator: Sketch 43.2 (39069) - http://www.bohemiancoding.com/sketch -->
    <title>svg/ic_map_poi_103</title>
    <desc>Created with Sketch.</desc>
    <defs></defs>
    <g id="Assets-white-32x32" stroke="none" stroke-width="1" fill="none" fill-rule="evenodd">
        <g id="ic_map_poi_103" fill="#ffffff">
            <path d="M21.4479,21.9455 C21.2289,22.1595 20.6769,22.5355 19.9999,22.5355 L19.9999,25.0025 L21.9999,25.0025 L21.9999,22.3025 C21.8749,22.2655 21.5889,22.0885 21.4479,21.9455" id="Fill-3"></path>
            <path d="M26.2042,15.971 C26.2042,14.655 25.1372,13.589 23.8222,13.589 C23.7762,13.589 23.7312,13.593 23.6862,13.595 C23.3602,12.667 22.4782,12 21.4392,12 C20.3922,12 19.5062,12.676 19.1852,13.614 C19.0782,13.599 18.9692,13.589 18.8582,13.589 C18.5552,13.589 18.2662,13.647 18.0002,13.75 L18.0002,20.648 C18.4372,21.186 19.1032,21.531 19.8502,21.531 C20.4622,21.531 21.0172,21.299 21.4392,20.92 C21.8612,21.299 22.4162,21.531 23.0272,21.531 C24.3432,21.531 25.4102,20.464 25.4102,19.148 C25.4102,18.723 25.2972,18.324 25.1022,17.978 C25.7642,17.555 26.2042,16.815 26.2042,15.971" id="Fill-5"></path>
            <path d="M14,14.974 L10,14.97 L10,11 L14,11 L14,14.974 Z M10,21 L14,21 L14,17 L10,17 L10,21 Z M11.006,5.995 L6,10.038 L6,25.003 L16,25.003 L16,10.038 L11.006,5.995 Z" id="Fill-7"></path>
        </g>
    </g>
</svg>