<?xml version="1.0" encoding="UTF-8"?>
<svg width="32px" height="32px" viewBox="0 0 32 32" version="1.1" xmlns="http://www.w3.org/2000/svg" xmlns:xlink="http://www.w3.org/1999/xlink">
    <!-- Generator: Sketch 43.2 (39069) - http://www.bohemiancoding.com/sketch -->
    <title>svg/ic_map_poi_006</title>
    <desc>Created with Sketch.</desc>
    <defs></defs>
    <g id="Assets-white-32x32" stroke="none" stroke-width="1" fill="none" fill-rule="evenodd">
        <g id="ic_map_poi_006" fill="#ffffff">
            <path d="M26.9065,16.9168 C26.9065,16.3648 26.4585,15.9168 25.9065,15.9168 L22.1165,15.9168 L19.9345,11.9168 L22.9065,11.9168 C23.4585,11.9168 23.9065,11.4688 23.9065,10.9168 C23.9065,10.3648 23.4585,9.9168 22.9065,9.9168 L8.9065,9.9168 C8.3545,9.9168 7.9065,10.3648 7.9065,10.9168 C7.9065,11.4688 8.3545,11.9168 8.9065,11.9168 L17.9345,11.9168 L20.1165,15.9168 L11.7375,15.9168 L13.9205,11.9378 L11.9205,11.9378 L9.7375,15.9168 L5.9065,15.9168 C5.3545,15.9168 4.9065,16.3648 4.9065,16.9168 C4.9065,17.4688 5.3545,17.9168 5.9065,17.9168 L8.6405,17.9168 L5.9065,22.9028 L7.9065,22.9028 L10.6405,17.9168 L21.2075,17.9168 L23.9275,22.9028 L25.9275,22.9028 L23.2075,17.9168 L25.9065,17.9168 C26.4585,17.9168 26.9065,17.4688 26.9065,16.9168" id="Fill-2"></path>
        </g>
    </g>
</svg>