<?xml version="1.0" encoding="UTF-8"?>
<svg width="32px" height="32px" viewBox="0 0 32 32" version="1.1" xmlns="http://www.w3.org/2000/svg" xmlns:xlink="http://www.w3.org/1999/xlink">
    <!-- Generator: Sketch 43.2 (39069) - http://www.bohemiancoding.com/sketch -->
    <title>svg/ic_map_poi_038</title>
    <desc>Created with Sketch.</desc>
    <defs></defs>
    <g id="Assets-white-32x32" stroke="none" stroke-width="1" fill="none" fill-rule="evenodd">
        <g id="ic_map_poi_038" fill="#ffffff">
            <polygon id="Fill-2" points="12 25.9697 20 25.9697 20 23.9697 12 23.9697"></polygon>
            <path d="M22.329,10.7754 C22.061,13.1674 21.631,12.9574 19.492,13.4754 C20.31,11.8514 20.702,10.2854 20.873,9.0054 C22.33,9.0384 22.442,9.7704 22.329,10.7754 M9.671,10.9694 C9.558,9.9574 9.669,9.2204 11.156,9.1984 C11.348,10.5024 11.769,12.0754 12.625,13.6994 C10.387,13.1444 9.944,13.4034 9.671,10.9694 M20.983,7.7784 C21.032,6.6714 20.932,5.9694 20.932,5.9694 L16,5.9694 L11.068,5.9694 C11.068,5.9694 10.955,6.7524 11.027,7.9724 C9.059,7.9864 8.261,8.9394 8.464,10.9694 C8.837,14.7174 9.753,14.3704 13.502,15.1504 C13.931,15.7664 14.429,16.3784 15.014,16.9734 L15.014,20.0784 C13.811,20.3324 12.68,21.0234 12.055,21.9694 L19.945,21.9694 C19.318,21.0214 18.189,20.3304 16.986,20.0764 L16.986,16.9734 C17.643,16.3054 18.186,15.6174 18.648,14.9264 C22.267,14.1874 23.169,14.4714 23.536,10.7754 C23.738,8.7484 22.943,7.7954 20.983,7.7784" id="Fill-3"></path>
        </g>
    </g>
</svg>