<?xml version="1.0" encoding="UTF-8"?>
<svg width="32px" height="32px" viewBox="0 0 32 32" version="1.1" xmlns="http://www.w3.org/2000/svg" xmlns:xlink="http://www.w3.org/1999/xlink">
    <!-- Generator: Sketch 43.2 (39069) - http://www.bohemiancoding.com/sketch -->
    <title>svg/ic_map_poi_079</title>
    <desc>Created with Sketch.</desc>
    <defs></defs>
    <g id="Assets-white-32x32" stroke="none" stroke-width="1" fill="none" fill-rule="evenodd">
        <g id="ic_map_poi_079" fill="#ffffff">
            <path d="M24.8027,7.96 C24.5467,7.698 24.1237,7.69 23.8587,7.943 C23.8587,7.943 22.2117,9.864 20.4157,12.009 C20.1217,11.856 19.7997,11.747 19.4617,11.694 L19.4627,11.694 C20.2397,8.743 20.9557,5.853 20.9557,5.853 C21.0627,5.502 20.8637,5.134 20.5097,5.028 C20.1567,4.923 19.7847,5.12 19.6777,5.47 C19.6777,5.47 19.0607,8.584 18.4907,11.697 C17.9247,11.791 17.4067,12.04 16.9907,12.397 C16.4527,11.937 15.7487,11.653 14.9897,11.653 C13.9227,11.653 12.9607,12.211 12.4277,13.04 C11.9967,12.814 11.5057,12.683 10.9897,12.683 C9.6147,12.683 8.6047,13.491 8.1607,14.611 C8.1607,14.611 7.9787,15.112 8.2717,15.234 C8.8597,15.46 9.5677,15.659 10.1067,15.772 C11.9007,16.146 13.7777,16.393 15.9947,16.393 C20.0067,16.393 23.7197,15.25 23.8027,15.234 C23.9747,15.189 23.9707,14.757 23.9267,14.606 C23.5327,13.546 22.4967,12.767 21.2937,12.691 C21.2737,12.668 21.2487,12.647 21.2277,12.624 C23.1187,10.663 24.7857,8.895 24.7857,8.895 C25.0507,8.641 25.0597,8.223 24.8027,7.96" id="Fill-2"></path>
            <path d="M16.0391,18.0166 C13.9501,18.0166 11.8481,17.8586 9.8021,17.4326 C9.1381,17.2946 8.4721,17.1326 7.8381,16.8896 C7.5951,16.7956 7.0911,16.6436 6.9901,16.3636 C6.9901,19.2036 8.4731,21.7456 11.0021,23.1046 C11.2921,23.2606 11.6821,23.4406 11.9901,23.5656 C11.9901,23.5656 11.9921,24.4306 11.9901,24.4296 C12.3861,25.2436 14.0681,25.9966 15.9791,25.9966 C17.8961,25.9966 19.6001,25.2516 19.9901,24.4356 L20.0001,23.5586 C21.3171,23.0196 22.6101,22.1326 23.4761,21.0026 C24.4991,19.6706 24.9831,18.0256 24.9831,16.3636 C24.7751,16.9416 21.0101,18.0166 16.0391,18.0166" id="Fill-4"></path>
        </g>
    </g>
</svg>