<?xml version="1.0" encoding="UTF-8"?>
<svg width="32px" height="32px" viewBox="0 0 32 32" version="1.1" xmlns="http://www.w3.org/2000/svg" xmlns:xlink="http://www.w3.org/1999/xlink">
    <!-- Generator: Sketch 43.2 (39069) - http://www.bohemiancoding.com/sketch -->
    <title>svg/ic_map_poi_033</title>
    <desc>Created with Sketch.</desc>
    <defs></defs>
    <g id="Assets-white-32x32" stroke="none" stroke-width="1" fill="none" fill-rule="evenodd">
        <g id="ic_map_poi_033" fill="#ffffff">
            <path d="M16.499,22.9697 C17.328,22.9697 18,23.6417 18,24.4697 C18,25.2977 17.328,25.9697 16.499,25.9697 C15.672,25.9697 15,25.2977 15,24.4697 C15,23.6417 15.672,22.9697 16.499,22.9697" id="Fill-2"></path>
            <path d="M10.499,22.9697 C11.328,22.9697 12,23.6417 12,24.4697 C12,25.2977 11.328,25.9697 10.499,25.9697 C9.672,25.9697 9,25.2977 9,24.4697 C9,23.6417 9.672,22.9697 10.499,22.9697" id="Fill-4"></path>
            <path d="M17.5581,21.9671 C18.3711,21.9671 18.7211,21.7331 18.8991,21.3511 C18.9011,21.3471 19.1001,20.9081 19.1021,20.9041 L23.6861,8.9701 L25.0001,8.9701 C25.5521,8.9701 26.0001,8.5211 26.0001,7.9701 C26.0001,7.4181 25.5521,6.9701 25.0001,6.9701 L22.8991,6.9731 C22.3731,6.9681 22.1901,7.2641 22.0681,7.6031 L22.0761,7.5911 L21.1591,9.9701 L7.0001,9.9701 L6.9741,9.9701 C6.4061,9.9731 5.7301,10.3451 6.0631,11.3201 L8.0611,17.3191 C8.2111,17.7391 8.5441,17.9691 9.0001,17.9701 L18.0821,17.9701 L17.3121,19.9701 L9.0001,19.9701 C8.4471,19.9701 8.0001,20.4181 8.0001,20.9701 C8.0001,21.5211 8.4471,21.9701 9.0001,21.9701 L17.5581,21.9671 Z" id="Fill-6"></path>
        </g>
    </g>
</svg>