<?xml version="1.0" encoding="UTF-8"?>
<svg width="32px" height="32px" viewBox="0 0 32 32" version="1.1" xmlns="http://www.w3.org/2000/svg" xmlns:xlink="http://www.w3.org/1999/xlink">
    <!-- Generator: Sketch 43.2 (39069) - http://www.bohemiancoding.com/sketch -->
    <title>svg/ic_map_poi_078</title>
    <desc>Created with Sketch.</desc>
    <defs></defs>
    <g id="Assets-white-32x32" stroke="none" stroke-width="1" fill="none" fill-rule="evenodd">
        <g id="ic_map_poi_078" fill="#ffffff">
            <path d="M19.5,12.002 L14.5,12.002 C14.224,12.002 14,11.778 14,11.502 C14,11.226 14.224,11.002 14.5,11.002 L19.5,11.002 C19.776,11.002 20,11.226 20,11.502 C20,11.778 19.776,12.002 19.5,12.002" id="Fill-2"></path>
            <path d="M15,5.9998 C15,6.5518 14.552,6.9998 14,6.9998 C13.448,6.9998 13,6.5518 13,5.9998 C13,5.4478 13.448,4.9998 14,4.9998 C14.552,4.9998 15,5.4478 15,5.9998" id="Fill-4"></path>
            <path d="M18,5.9998 C18,6.5518 17.552,6.9998 17,6.9998 C16.448,6.9998 16,6.5518 16,5.9998 C16,5.4478 16.448,4.9998 17,4.9998 C17.552,4.9998 18,5.4478 18,5.9998" id="Fill-6"></path>
            <path d="M21,5.9998 C21,6.5518 20.552,6.9998 20,6.9998 C19.448,6.9998 19,6.5518 19,5.9998 C19,5.4478 19.448,4.9998 20,4.9998 C20.552,4.9998 21,5.4478 21,5.9998" id="Fill-8"></path>
            <path d="M19.5,8.001 C19.5,8.553 19.052,9 18.5,9 C17.948,9 17.502,8.554 17.5,8.003 L16.5,8.004 C16.499,8.555 16.052,9.002 15.5,9.002 C14.949,9.002 14.502,8.556 14.5,8.006 L14,8.006 L14,10.006 L20,10.006 L20,8 L19.5,8.001 Z" id="Fill-10"></path>
            <path d="M10.7241,13.0066 C9.7651,13.0066 8.9881,13.6806 8.9881,14.5136 C8.9881,14.6976 9.0311,14.8716 9.1001,15.0336 C9.2941,14.9696 9.5021,14.9306 9.7221,14.9306 C10.3621,14.9306 10.9211,15.4186 11.2221,15.9896 C11.9371,15.9046 12.4611,15.6116 12.4611,14.9306 C12.4611,14.0976 11.6831,13.0066 10.7241,13.0066" id="Fill-12"></path>
            <path d="M21.6191,14 L14.0181,14 L14.0181,17 L23.0481,17 L23.0481,15.429 C23.0481,14.64 22.4071,14 21.6191,14" id="Fill-14"></path>
            <path d="M25,17 C24.448,17 24,17.448 24,18 L8,18 L8,11 C8,10.448 7.552,10 7,10 C6.448,10 6,10.448 6,11 L6,18 L6,24 L8,24 L8,22 L24,22 L24,24 L26,24 L26,18 C26,17.448 25.552,17 25,17" id="Fill-16"></path>
        </g>
    </g>
</svg>