<?xml version="1.0" encoding="UTF-8"?>
<svg width="32px" height="32px" viewBox="0 0 32 32" version="1.1" xmlns="http://www.w3.org/2000/svg" xmlns:xlink="http://www.w3.org/1999/xlink">
    <!-- Generator: Sketch 43.2 (39069) - http://www.bohemiancoding.com/sketch -->
    <title>svg/ic_map_poi_090</title>
    <desc>Created with Sketch.</desc>
    <defs></defs>
    <g id="Assets-white-32x32" stroke="none" stroke-width="1" fill="none" fill-rule="evenodd">
        <g id="ic_map_poi_090" fill="#ffffff">
            <path d="M23,7 C23,6.448 22.552,6 22,6 C21.448,6 21,6.448 21,7 C21,7.684 20.97,8.351 20.914,9 L17.899,9 C17.963,8.35 18,7.685 18,7 C18,6.448 17.552,6 17,6 C16.448,6 16,6.448 16,7 C16,17.971 6.76,24.57 6.76,24.57 L6.767,24.578 C6.606,24.707 6.459,24.848 6.342,25 C5.917,25.553 6.022,26 6.574,26 C6.907,26 7.319,25.827 7.693,25.577 L7.697,25.582 C7.697,25.582 15.739,20.439 17.61,10.961 L20.655,10.984 C19.168,19.545 13.354,24.562 13.354,24.562 L13.36,24.568 C13.224,24.7 13.102,24.844 13.016,25 C12.711,25.553 12.912,26 13.465,26 C13.775,26 14.124,25.85 14.429,25.629 L14.436,25.635 C14.436,25.635 19.518,21.673 21.849,14.362 L22.242,18 L21.594,18 C21.274,18.692 20.944,19.352 20.609,19.969 L22.458,19.99 L22.675,22 L19.413,22 C18.94,22.744 18.483,23.4 18.066,23.965 L22.891,23.997 L23,25 C23,25.552 23.448,26 24,26 C24.552,26 25,25.552 25,25 L23,7 Z" id="Fill-2"></path>
        </g>
    </g>
</svg>