<?xml version="1.0" encoding="UTF-8"?>
<svg width="32px" height="32px" viewBox="0 0 32 32" version="1.1" xmlns="http://www.w3.org/2000/svg" xmlns:xlink="http://www.w3.org/1999/xlink">
    <!-- Generator: Sketch 43.2 (39069) - http://www.bohemiancoding.com/sketch -->
    <title>svg/ic_map_poi_119</title>
    <desc>Created with Sketch.</desc>
    <defs></defs>
    <g id="Assets-white-32x32" stroke="none" stroke-width="1" fill="none" fill-rule="evenodd">
        <g id="ic_map_poi_119" fill="#ffffff">
            <path d="M9.3978,22.4805 C9.5018,22.6885 9.5668,22.9195 9.5668,23.1675 C9.5668,24.0175 8.8748,24.7095 8.0238,24.7095 C7.1738,24.7095 6.4818,24.0175 6.4818,23.1675 C6.4818,22.9195 6.5458,22.6885 6.6508,22.4805 L5.2828,22.4805 C5.2268,22.7015 5.1888,22.9295 5.1888,23.1675 C5.1888,24.7305 6.4608,26.0025 8.0238,26.0025 C9.5878,26.0025 10.8598,24.7305 10.8598,23.1675 C10.8598,22.9295 10.8208,22.7015 10.7658,22.4805 L9.3978,22.4805 Z" id="Fill-4"></path>
            <path d="M24.6776,23.3696 C24.5776,24.1236 23.9366,24.7096 23.1556,24.7096 C22.5726,24.7096 22.0706,24.3806 21.8086,23.9026 C21.1756,23.9646 20.6996,23.9756 20.4526,23.9756 C20.8026,25.1436 21.8746,26.0026 23.1556,26.0026 C24.7196,26.0026 25.9906,24.7306 25.9906,23.1676 C25.9906,23.0946 25.9746,23.0266 25.9696,22.9556 C25.5276,23.1176 25.0946,23.2546 24.6776,23.3696" id="Fill-6"></path>
            <path d="M8.2263,18.4501 C6.4723,18.4501 5.0513,19.7011 4.9353,21.2781 L10.2723,21.2781 L8.2673,18.4541 C8.2533,18.4541 8.2403,18.4501 8.2263,18.4501" id="Fill-8"></path>
            <path d="M24.1803,18.0366 C24.5983,17.8996 24.9023,17.5096 24.9023,17.0456 C24.9023,16.4676 24.4343,15.9986 23.8553,15.9986 L18.0003,15.9986 C17.0003,15.9986 16.0283,16.7696 16.0283,17.9806 C16.0283,18.4536 17.0003,20.7936 17.0003,20.7936 L14.4483,20.7936 C12.3473,20.7936 12.4683,18.6926 12.3473,17.7636 C12.2563,17.0636 12.1073,15.7896 12.0003,14.9996 L13.1293,14.9996 C13.4163,15.0326 13.9443,14.9996 14.0003,14.4096 C14.0393,13.9956 13.7183,13.6916 13.4303,13.6596 L11.1653,13.4496 C10.9393,13.4246 10.7893,13.5556 10.6383,13.7406 C10.5753,13.8256 10.1163,14.4496 9.1423,15.6486 C8.0913,16.9416 8.8193,17.7496 9.1423,18.2076 C9.4653,18.6656 9.3173,18.5306 10.6503,20.3896 C11.9833,22.2476 13.4783,22.6926 14.8933,22.6926 L20.5493,22.6926 C21.2763,22.6926 24.0643,22.6116 27.0543,21.2786 C26.3793,19.5326 25.3503,18.7946 24.1803,18.0366" id="Fill-10"></path>
            <path d="M11.5,9.5 C10.673,9.5 10,8.827 10,8 C10,7.173 10.673,6.5 11.5,6.5 C12.327,6.5 13,7.173 13,8 C13,8.827 12.327,9.5 11.5,9.5 M23.658,6.5 L17.342,6.5 L14.659,6.5 C14.097,5.318 12.896,4.5 11.5,4.5 C9.567,4.5 8,6.067 8,8 C8,9.933 9.567,11.5 11.5,11.5 C12.896,11.5 14.097,10.682 14.659,9.5 L17,9.5 L17,11.5 L19,11.5 L19,9.5 L20,9.5 L20,11.5 L22,11.5 L22,9.5 L23.659,9.5 C23.875,9.045 24,8.538 24,8 C24,7.463 23.875,6.955 23.658,6.5" id="Fill-12"></path>
        </g>
    </g>
</svg>