<?xml version="1.0" encoding="UTF-8"?>
<svg width="32px" height="32px" viewBox="0 0 32 32" version="1.1" xmlns="http://www.w3.org/2000/svg" xmlns:xlink="http://www.w3.org/1999/xlink">
    <!-- Generator: Sketch 43.2 (39069) - http://www.bohemiancoding.com/sketch -->
    <title>svg/ic_map_poi_105</title>
    <desc>Created with Sketch.</desc>
    <defs></defs>
    <g id="Assets-white-32x32" stroke="none" stroke-width="1" fill="none" fill-rule="evenodd">
        <g id="ic_map_poi_105" fill="#ffffff">
            <path d="M18.5954,15.2564 C19.2854,16.0784 20.0004,16.9294 20.0004,17.9994 C20.0004,20.2054 18.2054,21.9994 16.0004,21.9994 C13.7944,21.9994 12.0004,20.2054 12.0004,17.9994 C12.0004,17.4464 12.4484,16.9994 13.0004,16.9994 C13.5524,16.9994 14.0004,17.4464 14.0004,17.9994 C14.0004,19.1024 14.8974,19.9994 16.0004,19.9994 C17.1034,19.9994 18.0004,19.1024 18.0004,17.9994 C18.0004,17.6574 17.5244,17.0904 17.0634,16.5424 C16.6944,16.1034 16.2714,15.5884 15.9024,14.9904 C14.2914,14.9374 13.0004,13.6234 13.0004,12.0004 C13.0004,10.6954 13.8374,9.5964 15.0004,9.1834 L15.0004,3.9994 L17.0004,3.9994 L17.0004,9.1834 C18.1624,9.5974 19.0004,10.6954 19.0004,12.0004 C19.0004,12.9494 18.5504,13.7844 17.8634,14.3344 C18.0924,14.6524 18.3444,14.9564 18.5954,15.2564 Z" id="Fill-3"></path>
            <polygon id="Fill-5" points="8.04 26 24.04 26 24.04 24 8.04 24"></polygon>
        </g>
    </g>
</svg>