<?xml version="1.0" encoding="UTF-8"?>
<svg width="32px" height="32px" viewBox="0 0 32 32" version="1.1" xmlns="http://www.w3.org/2000/svg" xmlns:xlink="http://www.w3.org/1999/xlink">
    <!-- Generator: Sketch 43.2 (39069) - http://www.bohemiancoding.com/sketch -->
    <title>svg/ic_map_poi_074</title>
    <desc>Created with Sketch.</desc>
    <defs></defs>
    <g id="Assets-white-32x32" stroke="none" stroke-width="1" fill="none" fill-rule="evenodd">
        <g id="ic_map_poi_074" fill="#ffffff">
            <path d="M19.7979,9.1543 L21.0249,5.3463 C21.1089,5.0843 21.3909,4.9393 21.6529,5.0243 C21.9159,5.1083 22.0609,5.3903 21.9769,5.6533 L20.7499,9.4613 C20.4569,9.3663 20.1099,9.2553 19.7979,9.1543" id="Fill-2"></path>
            <path d="M17.667,22 C17.667,23.185 17.244,23.667 12.995,23.667 C9.205,23.667 8.334,23.354 8.334,22 L7,22 C7,25 10.025,25 12.995,25 C15.949,25 19,25 19,22 L17.667,22 Z" id="Fill-4"></path>
            <path d="M13,15 C12.397,15 11.814,15.043 11.261,15.124 L11.26,15.122 L11.25,15.126 C9.094,15.446 7.408,16.388 7,18 L19,18 C18.419,15.972 15.97,15 13,15" id="Fill-6"></path>
            <path d="M18.001,19 L13,19.003 C12.035,19.058 11.548,20.324 9.21,20.302 C8.377,20.27 8.725,19 8.172,19 L8,19 C7.448,19 7,19.448 7,20 C7,20.552 7.448,21 8,21 L18.001,21 C18.553,21 18.994,20.552 18.994,20 C18.994,19.448 18.553,19 18.001,19" id="Fill-8"></path>
            <path d="M15,13 L15,13.144 C18.099,13.599 20.26,15.134 20.923,17.449 L21.654,20 L21,20 L21,22 C21,23.193 20.662,24.207 20.024,25 L22,25 C22.553,25 23,24.553 23,24 L24,13 L15,13 Z" id="Fill-10"></path>
            <path d="M25,10 C25,10.552 24.553,11 24,11 L15,11 C14.448,11 14,10.552 14,10 C14,9.448 14.448,9 15,9 L24,9 C24.553,9 25,9.448 25,10" id="Fill-12"></path>
        </g>
    </g>
</svg>