<?xml version="1.0" encoding="UTF-8"?>
<svg width="32px" height="32px" viewBox="0 0 32 32" version="1.1" xmlns="http://www.w3.org/2000/svg" xmlns:xlink="http://www.w3.org/1999/xlink">
    <!-- Generator: Sketch 43.2 (39069) - http://www.bohemiancoding.com/sketch -->
    <title>svg/ic_map_poi_084</title>
    <desc>Created with Sketch.</desc>
    <defs></defs>
    <g id="Assets-white-32x32" stroke="none" stroke-width="1" fill="none" fill-rule="evenodd">
        <g id="ic_map_poi_084" fill="#ffffff">
            <path d="M10.5013,24.1639 C9.6233,24.1639 8.9103,23.4179 8.9103,22.4969 C8.9103,21.5769 9.6233,20.8309 10.5013,20.8309 C11.3803,20.8309 12.0923,21.5769 12.0923,22.4969 C12.0923,23.4179 11.3803,24.1639 10.5013,24.1639 L10.5013,24.1639 Z M14.0013,22.6969 C14.0013,20.4629 12.5323,18.9099 10.5423,18.9099 C8.5523,18.9099 7.0013,20.4629 7.0013,22.6969 L7.0013,25.9949 L14.0013,25.9949 L14.0013,22.6969 Z" id="Fill-1"></path>
            <path d="M23.5609,19.4938 C24.1179,19.3378 24.3979,18.5988 24.1859,17.8418 C23.9739,17.0858 23.3509,16.5998 22.7949,16.7558 L22.0429,16.9658 L22.8089,19.7038 L23.5609,19.4938 Z" id="Fill-3"></path>
            <polygon id="Fill-5" points="17.528 21.1817 16.761 18.4437 15.002 18.9357 15.768 21.6747"></polygon>
            <polygon id="Fill-7" points="21.0489 20.197 20.2819 17.458 18.5219 17.951 19.2879 20.689"></polygon>
            <path d="M18.592,11.0261 C18.324,12.0411 17.465,12.6951 16.673,12.4861 C15.881,12.2771 15.456,11.2851 15.724,10.2701 C15.992,9.2541 16.851,8.6001 17.643,8.8091 C18.435,9.0181 18.86,10.0111 18.592,11.0261 L18.592,11.0261 Z M13.353,7.3001 L12.197,11.6831 L20.963,13.9951 L22.119,9.6121 L13.353,7.3001 Z" id="Fill-9"></path>
            <polygon id="Fill-11" points="11.2735 8.5924 10.4105 13.0424 19.3105 14.7684 19.3605 14.5114 11.0855 12.3284 12.0005 8.7334"></polygon>
            <polygon id="Fill-13" points="17.2675 12.0668 16.5315 11.8718 16.9705 10.2128 16.5725 10.4158 16.3785 9.7958 17.3745 9.3848 17.9375 9.5338"></polygon>
        </g>
    </g>
</svg>