<?xml version="1.0" encoding="UTF-8"?>
<svg width="32px" height="32px" viewBox="0 0 32 32" version="1.1" xmlns="http://www.w3.org/2000/svg" xmlns:xlink="http://www.w3.org/1999/xlink">
    <!-- Generator: Sketch 43.2 (39069) - http://www.bohemiancoding.com/sketch -->
    <title>svg/ic_map_poi_023</title>
    <desc>Created with Sketch.</desc>
    <defs></defs>
    <g id="Assets-white-32x32" stroke="none" stroke-width="1" fill="none" fill-rule="evenodd">
        <g id="ic_map_poi_023" fill="#ffffff">
            <path d="M17.5,16.5 C17.5,18.433 15.933,20 14,20 C12.066,20 10.5,18.433 10.5,16.5 C10.5,14.567 12.066,13 14,13 C15.933,13 17.5,14.567 17.5,16.5" id="Fill-2"></path>
            <path d="M22.5,15 C21.671,15 21,14.328 21,13.5 C21,12.672 21.671,12 22.5,12 C23.328,12 24,12.672 24,13.5 C24,14.328 23.328,15 22.5,15 M14,22 C10.962,22 8.5,19.538 8.5,16.5 C8.5,13.462 10.962,11 14,11 C17.037,11 19.5,13.462 19.5,16.5 C19.5,19.538 17.037,22 14,22 M24.5,10 L18.993,10 C18.93,9.898 17.991,8.396 17.75,8.011 C17.5,7.611 17,7.043 16,7.01 C15.738,7.001 14.909,6.999 14,7 C13.09,6.999 12.262,7.001 12,7.01 C11,7.043 10.499,7.611 10.249,8.011 C10.008,8.396 9.069,9.898 9.006,10 L7.5,10 C6.671,10 6,10.672 6,11.5 L6,21.5 C6,22.328 6.671,23 7.5,23 L24.5,23 C25.328,23 26,22.328 26,21.5 L26,11.5 C26,10.672 25.328,10 24.5,10" id="Fill-4"></path>
        </g>
    </g>
</svg>