<?xml version="1.0" encoding="UTF-8"?>
<svg width="32px" height="32px" viewBox="0 0 32 32" version="1.1" xmlns="http://www.w3.org/2000/svg" xmlns:xlink="http://www.w3.org/1999/xlink">
    <!-- Generator: Sketch 43.2 (39069) - http://www.bohemiancoding.com/sketch -->
    <title>svg/ic_map_poi_005</title>
    <desc>Created with Sketch.</desc>
    <defs></defs>
    <g id="Assets-white-32x32" stroke="none" stroke-width="1" fill="none" fill-rule="evenodd">
        <g id="ic_map_poi_005" fill="#ffffff">
            <path d="M9,26.9697 C8.752,26.9697 8.504,26.8747 8.314,26.6857 C7.935,26.3067 7.935,25.6937 8.314,25.3147 L10.314,23.3147 C10.693,22.9357 11.308,22.9357 11.685,23.3147 C12.064,23.6937 12.064,24.3067 11.685,24.6857 L9.685,26.6857 C9.497,26.8747 9.248,26.9697 9,26.9697" id="Fill-3"></path>
            <path d="M23,26.9697 C22.752,26.9697 22.504,26.8747 22.314,26.6857 L20.314,24.6857 C19.935,24.3067 19.935,23.6937 20.314,23.3147 C20.693,22.9357 21.308,22.9357 21.685,23.3147 L23.685,25.3147 C24.064,25.6937 24.064,26.3067 23.685,26.6857 C23.497,26.8747 23.248,26.9697 23,26.9697" id="Fill-5"></path>
            <path d="M22.998,7.5137 C22.997,7.5367 22.997,7.5597 22.993,7.5827 L21.993,13.5827 C21.993,13.5857 21.992,13.5877 21.992,13.5877 C21.987,13.6097 21.981,13.6267 21.977,13.6457 C21.972,13.6587 21.969,13.6737 21.964,13.6867 C21.957,13.7027 21.948,13.7177 21.94,13.7337 C21.933,13.7467 21.927,13.7607 21.918,13.7737 C21.909,13.7867 21.898,13.7987 21.889,13.8117 C21.879,13.8247 21.869,13.8367 21.858,13.8487 C21.847,13.8607 21.833,13.8697 21.82,13.8807 C21.809,13.8907 21.798,13.9017 21.785,13.9097 C21.771,13.9197 21.756,13.9267 21.741,13.9357 C21.728,13.9427 21.716,13.9507 21.701,13.9567 C21.686,13.9637 21.671,13.9677 21.656,13.9727 C21.641,13.9777 21.625,13.9837 21.608,13.9877 C21.595,13.9907 21.579,13.9907 21.564,13.9927 C21.546,13.9957 21.528,13.9987 21.509,13.9987 C21.506,13.9987 21.503,13.9997 21.5,13.9997 L10.5,13.9997 C10.497,13.9997 10.494,13.9987 10.491,13.9987 C10.473,13.9987 10.454,13.9957 10.435,13.9927 C10.421,13.9907 10.406,13.9907 10.393,13.9877 C10.376,13.9837 10.36,13.9777 10.345,13.9727 C10.329,13.9677 10.313,13.9637 10.299,13.9567 C10.285,13.9507 10.272,13.9427 10.26,13.9357 C10.244,13.9267 10.229,13.9197 10.216,13.9097 C10.203,13.9017 10.191,13.8907 10.18,13.8807 C10.167,13.8697 10.154,13.8607 10.143,13.8487 C10.132,13.8367 10.122,13.8247 10.112,13.8117 C10.102,13.7987 10.092,13.7867 10.083,13.7737 C10.074,13.7607 10.067,13.7467 10.06,13.7337 C10.053,13.7177 10.044,13.7027 10.037,13.6867 C10.032,13.6737 10.028,13.6587 10.024,13.6457 C10.019,13.6267 10.013,13.6097 10.01,13.5907 C10.01,13.5907 10.008,13.5857 10.007,13.5827 L9.007,7.5827 C9.003,7.5597 9.003,7.5367 9.003,7.5137 L9,7.4997 L9.001,7.4907 C9.002,7.4717 9.005,7.4527 9.007,7.4337 C9.009,7.4197 9.01,7.4057 9.013,7.3927 C9.017,7.3747 9.022,7.3587 9.028,7.3407 C9.033,7.3267 9.037,7.3127 9.043,7.2997 C9.05,7.2837 9.059,7.2697 9.067,7.2547 C9.074,7.2407 9.081,7.2277 9.09,7.2157 C9.1,7.2017 9.111,7.1887 9.123,7.1757 C9.132,7.1647 9.141,7.1537 9.151,7.1427 C9.164,7.1307 9.178,7.1197 9.192,7.1097 C9.203,7.1007 9.214,7.0907 9.227,7.0827 C9.24,7.0727 9.255,7.0667 9.269,7.0587 C9.284,7.0517 9.298,7.0427 9.313,7.0367 C9.327,7.0317 9.342,7.0287 9.356,7.0237 C9.374,7.0187 9.391,7.0127 9.409,7.0087 C9.412,7.0087 9.415,7.0067 9.418,7.0067 C9.432,7.0047 9.445,7.0047 9.46,7.0037 C9.474,7.0027 9.486,6.9997 9.5,6.9997 L22.5,6.9997 C22.515,6.9997 22.527,7.0027 22.541,7.0037 C22.555,7.0047 22.568,7.0047 22.583,7.0067 C22.586,7.0067 22.589,7.0087 22.592,7.0087 C22.609,7.0127 22.627,7.0187 22.644,7.0237 C22.659,7.0287 22.674,7.0317 22.687,7.0367 C22.703,7.0427 22.717,7.0517 22.731,7.0587 C22.746,7.0667 22.761,7.0727 22.774,7.0827 C22.787,7.0907 22.798,7.1007 22.809,7.1097 C22.822,7.1197 22.837,7.1307 22.85,7.1427 C22.859,7.1537 22.868,7.1647 22.878,7.1757 C22.89,7.1887 22.901,7.2017 22.911,7.2157 C22.92,7.2277 22.926,7.2407 22.934,7.2547 C22.942,7.2697 22.951,7.2837 22.958,7.2997 C22.964,7.3127 22.968,7.3267 22.973,7.3407 C22.977,7.3587 22.984,7.3747 22.988,7.3927 C22.991,7.4057 22.992,7.4197 22.994,7.4337 C22.996,7.4527 22.999,7.4717 22.999,7.4907 L23,7.4997 L22.998,7.5137 Z M21.5,18.9997 C20.672,18.9997 20,18.3277 20,17.4997 C20,16.6717 20.672,15.9997 21.5,15.9997 C22.329,15.9997 23,16.6717 23,17.4997 C23,18.3277 22.329,18.9997 21.5,18.9997 L21.5,18.9997 Z M10.5,18.9997 C9.672,18.9997 9,18.3277 9,17.4997 C9,16.6717 9.672,15.9997 10.5,15.9997 C11.329,15.9997 12,16.6717 12,17.4997 C12,18.3277 11.329,18.9997 10.5,18.9997 L10.5,18.9997 Z M23,4.9997 L9,4.9997 C7.895,4.9997 7,5.8957 7,6.9997 L7,19.9997 C7,21.1047 7.895,21.9997 9,21.9997 L12,21.9997 C13.104,21.9997 14,21.1047 14,19.9997 L18,19.9997 C18,21.1047 18.895,21.9997 20,21.9997 L23,21.9997 C24.104,21.9997 25,21.1047 25,19.9997 L25,6.9997 C25,5.8957 24.104,4.9997 23,4.9997 L23,4.9997 Z" id="Fill-7"></path>
        </g>
    </g>
</svg>