<?xml version="1.0" encoding="UTF-8"?>
<svg width="32px" height="32px" viewBox="0 0 32 32" version="1.1" xmlns="http://www.w3.org/2000/svg" xmlns:xlink="http://www.w3.org/1999/xlink">
    <!-- Generator: Sketch 43.2 (39069) - http://www.bohemiancoding.com/sketch -->
    <title>svg/ic_map_poi_080</title>
    <desc>Created with Sketch.</desc>
    <defs></defs>
    <g id="Assets-white-32x32" stroke="none" stroke-width="1" fill="none" fill-rule="evenodd">
        <g id="ic_map_poi_080" fill="#ffffff">
            <polygon id="Fill-2" points="24 7 8 7 6 12 26 12"></polygon>
            <path d="M10.002,13 L10,13.023 C10,14.116 10.896,15 12,15 C13.105,15 14,14.116 14,13.023 L13.999,13.008 L10.002,13 Z" id="Fill-3"></path>
            <path d="M6,13 C6,14.092 6.896,14.977 8,14.977 C9.105,14.977 10,14.092 10,13 L6,13 Z" id="Fill-5"></path>
            <path d="M24,14.9766 C25.105,14.9766 26,14.0916 26,12.9996 L22,12.9996 C22,14.0916 22.896,14.9766 24,14.9766" id="Fill-7"></path>
            <path d="M20,14.9766 C21.105,14.9766 22,14.0916 22,12.9996 L18,12.9996 C18,14.0916 18.896,14.9766 20,14.9766" id="Fill-9"></path>
            <path d="M16,14.9766 C17.105,14.9766 18,14.0916 18,12.9996 L14,12.9996 C14,14.0916 14.896,14.9766 16,14.9766" id="Fill-11"></path>
            <path d="M23.9951,22.9951 L22.9671,23.0001 L23.0001,16.4021 C22.6951,16.3051 22.3561,16.1681 22.0471,15.9871 C21.7361,16.1681 21.3991,16.3051 21.0451,16.3971 L21.0071,19.0001 L18.0001,19.0001 L18.0381,15.9871 C17.4461,16.3301 16.7641,16.5301 16.0331,16.5301 L16.0121,19.0001 L11.0001,19.0001 L11.0211,16.4241 C10.6571,16.3281 10.3141,16.1851 10.0001,16.0001 C9.6941,16.1741 9.3631,16.3081 8.9671,16.4031 L8.9331,23.0001 L8.0051,22.9951 C6.8981,22.9951 6.0001,23.8921 6.0001,25.0001 L26.0001,25.0001 C26.0001,23.8921 25.1021,22.9951 23.9951,22.9951" id="Fill-13"></path>
        </g>
    </g>
</svg>