<?xml version="1.0" encoding="UTF-8"?>
<svg width="32px" height="32px" viewBox="0 0 32 32" version="1.1" xmlns="http://www.w3.org/2000/svg" xmlns:xlink="http://www.w3.org/1999/xlink">
    <!-- Generator: Sketch 43.2 (39069) - http://www.bohemiancoding.com/sketch -->
    <title>svg/ic_map_poi_999</title>
    <desc>Created with Sketch.</desc>
    <defs></defs>
    <g id="Assets-white-32x32" stroke="none" stroke-width="1" fill="none" fill-rule="evenodd">
        <g id="ic_map_poi_999" fill="#ffffff">
            <path d="M23.0713,23.0703 C19.1663,26.9763 12.8333,26.9763 8.9293,23.0703 C5.0233,19.1663 5.0233,12.8343 8.9293,8.9293 C12.8333,5.0233 19.1663,5.0233 23.0713,8.9293 C26.9763,12.8343 26.9763,19.1663 23.0713,23.0703 M7.5143,7.5143 C2.8283,12.2013 2.8283,19.7993 7.5143,24.4853 C12.2013,29.1723 19.7983,29.1723 24.4843,24.4853 C29.1723,19.7993 29.1723,12.2013 24.4843,7.5143 C19.7983,2.8293 12.2013,2.8293 7.5143,7.5143" id="Fill-2"></path>
            <path d="M21.4004,10.6006 C20.8634,10.0646 20.2654,9.6276 19.6294,9.2846 L16.0004,13.0906 L12.3704,9.2846 C11.7354,9.6276 11.1364,10.0646 10.6004,10.6006 C10.0644,11.1376 9.6274,11.7356 9.2844,12.3706 L13.0904,15.9996 L9.2834,19.6306 C9.6274,20.2656 10.0634,20.8646 10.6004,21.4006 C11.1364,21.9366 11.7344,22.3726 12.3694,22.7156 L16.0004,18.9096 L19.6304,22.7156 C20.2654,22.3726 20.8634,21.9366 21.4004,21.4006 C21.9364,20.8646 22.3734,20.2656 22.7154,19.6306 L18.9094,15.9996 L22.7154,12.3686 C22.3724,11.7346 21.9364,11.1366 21.4004,10.6006" id="Fill-4"></path>
        </g>
    </g>
</svg>