<?xml version="1.0" encoding="UTF-8"?>
<svg width="32px" height="32px" viewBox="0 0 32 32" version="1.1" xmlns="http://www.w3.org/2000/svg" xmlns:xlink="http://www.w3.org/1999/xlink">
    <!-- Generator: Sketch 43.2 (39069) - http://www.bohemiancoding.com/sketch -->
    <title>svg/ic_map_poi_057</title>
    <desc>Created with Sketch.</desc>
    <defs></defs>
    <g id="Assets-white-32x32" stroke="none" stroke-width="1" fill="none" fill-rule="evenodd">
        <g id="ic_map_poi_057" fill="#ffffff">
            <path d="M24,16 C24,17.105 23.105,18 22,18 C20.895,18 20,17.105 20,16 C20,14.895 20.895,14 22,14 C23.105,14 24,14.895 24,16" id="Fill-2"></path>
            <path d="M22.1269,11.7935 C23.2069,10.7135 23.5599,9.1835 23.1929,7.8065 C21.8159,7.4395 20.2869,7.7925 19.2069,8.8735 C18.1259,9.9535 17.7729,11.4825 18.1399,12.8595 C19.5179,13.2265 21.0469,12.8735 22.1269,11.7935" id="Fill-4"></path>
            <path d="M14.5,11.5 C14.5,12.328 13.828,13 13,13 C12.172,13 11.5,12.328 11.5,11.5 C11.5,10.672 12.172,10 13,10 C13.828,10 14.5,10.672 14.5,11.5" id="Fill-6"></path>
            <path d="M21,21.1667 C21,22.1797 20.179,22.9997 19.167,22.9997 C18.154,22.9997 17.333,22.1797 17.333,21.1667 C17.333,20.1537 18.154,19.3337 19.167,19.3337 C20.179,19.3337 21,20.1537 21,21.1667" id="Fill-8"></path>
            <path d="M14.6667,21.1667 C14.6667,22.1797 13.8457,22.9997 12.8337,22.9997 C11.8207,22.9997 10.9997,22.1797 10.9997,21.1667 C10.9997,20.1537 11.8207,19.3337 12.8337,19.3337 C13.8457,19.3337 14.6667,20.1537 14.6667,21.1667" id="Fill-10"></path>
            <path d="M18,16 C18,17.105 17.105,18 16,18 C14.895,18 14,17.105 14,16 C14,14.895 14.895,14 16,14 C17.105,14 18,14.895 18,16" id="Fill-12"></path>
            <path d="M17.5,25.5 C17.5,26.328 16.828,27 16,27 C15.172,27 14.5,26.328 14.5,25.5 C14.5,24.672 15.172,24 16,24 C16.828,24 17.5,24.672 17.5,25.5" id="Fill-14"></path>
            <path d="M12,16 C12,17.105 11.105,18 10,18 C8.895,18 8,17.105 8,16 C8,14.895 8.895,14 10,14 C11.105,14 12,14.895 12,16" id="Fill-16"></path>
            <path d="M16,11 L16,11 C15.45,11 15,5.55 15,5 L15,5 C15,4.45 15.45,4 16,4 L16,4 C16.55,4 17,4.45 17,5 L17,5 C17,5.55 16.55,11 16,11" id="Fill-18"></path>
        </g>
    </g>
</svg>