<?xml version="1.0" encoding="UTF-8"?>
<svg width="32px" height="32px" viewBox="0 0 32 32" version="1.1" xmlns="http://www.w3.org/2000/svg" xmlns:xlink="http://www.w3.org/1999/xlink">
    <!-- Generator: Sketch 43.2 (39069) - http://www.bohemiancoding.com/sketch -->
    <title>svg/ic_map_poi_012</title>
    <desc>Created with Sketch.</desc>
    <defs></defs>
    <g id="Assets-white-32x32" stroke="none" stroke-width="1" fill="none" fill-rule="evenodd">
        <g id="ic_map_poi_012" fill="#ffffff">
            <polygon id="Fill-2" points="21 24 26 24 26 22 21 22"></polygon>
            <polygon id="Fill-3" points="21 16 26 16 26 12 21 12"></polygon>
            <polygon id="Fill-4" points="21 20 26 20 26 18 21 18"></polygon>
            <polygon id="Fill-5" points="14 4 14 11 17 11 17 13 14 13 14 15 17 15 17 17 14 17 14 19 17 19 17 21 14 21 14 24 19 24 19 8"></polygon>
            <polygon id="Fill-6" points="9 9 9 14 6 14 6 24 12 24 12 9"></polygon>
        </g>
    </g>
</svg>