<?xml version="1.0" encoding="UTF-8"?>
<svg width="32px" height="32px" viewBox="0 0 32 32" version="1.1" xmlns="http://www.w3.org/2000/svg" xmlns:xlink="http://www.w3.org/1999/xlink">
    <!-- Generator: Sketch 43.2 (39069) - http://www.bohemiancoding.com/sketch -->
    <title>svg/ic_map_poi_062</title>
    <desc>Created with Sketch.</desc>
    <defs></defs>
    <g id="Assets-white-32x32" stroke="none" stroke-width="1" fill="none" fill-rule="evenodd">
        <g id="ic_map_poi_062" fill="#ffffff">
            <path d="M7.0908,19.2129 L7.0698,19.2489 C7.0268,19.3229 6.9998,19.4079 6.9998,19.4999 C6.9998,19.7759 7.2238,19.9999 7.4998,19.9999 L13.0078,19.9999 C13.5598,19.9999 14.0078,19.5519 14.0078,18.9999 L14.0078,7.9999 L7.0908,19.2129 Z" id="Fill-2"></path>
            <path d="M24.9111,19.2158 L24.9291,19.2468 C24.9231,19.2358 24.9171,19.2258 24.9111,19.2158" id="Fill-4"></path>
            <path d="M24.9287,19.2471 L24.9107,19.2161 L15.9997,4.0001 L15.9997,19.0001 C15.9997,19.5521 16.4487,20.0001 16.9997,20.0001 L24.4997,20.0001 C24.7767,20.0001 24.9997,19.7761 24.9997,19.5001 C24.9997,19.4071 24.9727,19.3211 24.9287,19.2471" id="Fill-6"></path>
            <path d="M25.5,22 C25.776,22 26,22.224 26,22.5 C26,22.67 25.915,22.819 25.786,22.909 C25.781,22.913 25.776,22.915 25.773,22.919 C22.995,24.86 19.657,26 16,26 C12.343,26 9.005,24.86 6.227,22.919 C6.224,22.915 6.219,22.913 6.214,22.909 C6.085,22.819 6,22.67 6,22.5 C6,22.224 6.224,22 6.5,22 L25.5,22 Z" id="Fill-8"></path>
        </g>
    </g>
</svg>