<?xml version="1.0" encoding="UTF-8"?>
<svg width="32px" height="32px" viewBox="0 0 32 32" version="1.1" xmlns="http://www.w3.org/2000/svg" xmlns:xlink="http://www.w3.org/1999/xlink">
    <!-- Generator: Sketch 43.2 (39069) - http://www.bohemiancoding.com/sketch -->
    <title>svg/ic_map_poi_126</title>
    <desc>Created with Sketch.</desc>
    <defs></defs>
    <g id="Assets-white-32x32" stroke="none" stroke-width="1" fill="none" fill-rule="evenodd">
        <g id="ic_map_poi_126" fill="#ffffff">
            <path d="M13,7 C11.895,7 11,7.895 11,9 C11,10.104 11.895,11 13,11 C14.104,11 15,10.104 15,9 C15,7.895 14.104,7 13,7" id="Fill-2"></path>
            <path d="M22.9497,12 L24.9997,9.95 L24.9997,7.05 L22.9497,5 L20.0507,5 L17.9997,7.05 L17.9997,9.95 L20.0507,12 L20.9997,12 L20.9997,15.305 L16.3397,12.729 C15.6717,12.354 14.9897,12.003 14.0367,12.003 C14.0277,12.003 14.0167,12 14.0067,12 L10.9997,12 C9.9167,12 8.9997,12.694 8.9997,14 L8.9997,19 C8.9997,19.621 9.4547,20 9.9997,20 L10.9997,20.009 L10.9997,26 C10.9997,26.552 11.4477,27 11.9997,27 L13.9997,27 C14.5527,27 14.9997,26.552 14.9997,26 L14.9997,20 L14.9997,19 L14.9997,14.296 L20.9997,17.574 L20.9997,26.986 L21.9997,26.986 L21.9997,18 C22.5527,18 22.9997,17.552 22.9997,17 C22.9997,16.605 22.7657,16.27 22.4327,16.108 C22.4297,16.103 22.4297,16.099 22.4267,16.094 L21.9997,15.858 L21.9997,12 L22.9497,12 Z" id="Fill-4"></path>
        </g>
    </g>
</svg>