<?xml version="1.0" encoding="UTF-8"?>
<svg width="32px" height="32px" viewBox="0 0 32 32" version="1.1" xmlns="http://www.w3.org/2000/svg" xmlns:xlink="http://www.w3.org/1999/xlink">
    <!-- Generator: Sketch 43.2 (39069) - http://www.bohemiancoding.com/sketch -->
    <title>svg/ic_map_poi_018</title>
    <desc>Created with Sketch.</desc>
    <defs></defs>
    <g id="Assets-white-32x32" stroke="none" stroke-width="1" fill="none" fill-rule="evenodd">
        <g id="ic_map_poi_018" fill="#ffffff">
            <polygon id="Fill-2" points="14 6 18 6 18 4 14 4"></polygon>
            <path d="M15.999,9.75 C14.599,11.151 11.52,12.548 9,13.052 L9,8 L23,8 L23,13.052 C20.48,12.549 17.399,11.151 15.999,9.75 L16,9.75 L15.999,9.75 Z" id="Fill-3"></path>
            <path d="M20.7402,26.127 C19.2892,26.127 17.5452,25.768 15.5382,24.724 C10.5812,22.145 7.8022,24.622 7.6842,24.729 C7.2832,25.098 6.6512,25.081 6.2742,24.682 C5.8982,24.281 5.9122,23.656 6.3082,23.277 C6.4632,23.129 10.1792,19.682 16.4622,22.95 C21.4202,25.53 24.1992,23.053 24.3152,22.945 C24.7152,22.574 25.3472,22.592 25.7252,22.992 C26.1012,23.393 26.0882,24.018 25.6912,24.397 C25.5862,24.497 23.8312,26.127 20.7402,26.127" id="Fill-5"></path>
            <path d="M11.2598,19.5469 C13.2468,19.5479 15.3078,20.0959 17.3838,21.1759 C18.5888,21.8029 19.7198,22.1199 20.7448,22.1199 C20.9068,22.1199 21.0598,22.1099 21.2048,22.0959 C23.1148,19.6919 24.2818,17.1999 24.3478,15.3039 C21.7798,15.2329 17.7748,13.6319 15.9998,11.9659 C14.2258,13.6319 10.2208,15.2329 7.6538,15.3039 C7.6968,16.5759 8.2368,18.1239 9.1898,19.7569 C9.8178,19.6279 10.5068,19.5469 11.2598,19.5469" id="Fill-7"></path>
            <polygon id="Fill-9" points="14 6 18 6 18 4 14 4"></polygon>
            <path d="M15.999,9.75 L15.999,9.75 L16,9.75 L15.999,9.75 C17.399,11.151 20.48,12.549 23,13.052 L23,8 L9,8 L9,13.052 C11.52,12.548 14.599,11.151 15.999,9.75" id="Fill-11"></path>
            <path d="M20.7402,26.127 C19.2892,26.127 17.5452,25.768 15.5382,24.724 C10.5812,22.145 7.8022,24.622 7.6842,24.729 C7.2832,25.098 6.6512,25.081 6.2742,24.682 C5.8982,24.281 5.9122,23.656 6.3082,23.277 C6.4632,23.129 10.1792,19.682 16.4622,22.95 C21.4202,25.53 24.1992,23.053 24.3152,22.945 C24.7152,22.574 25.3472,22.592 25.7252,22.992 C26.1012,23.393 26.0882,24.018 25.6912,24.397 C25.5862,24.497 23.8312,26.127 20.7402,26.127" id="Fill-12"></path>
            <path d="M11.2598,19.5469 C13.2468,19.5479 15.3078,20.0959 17.3838,21.1759 C18.5888,21.8029 19.7198,22.1199 20.7448,22.1199 C20.9068,22.1199 21.0598,22.1099 21.2048,22.0959 C23.1148,19.6919 24.2818,17.1999 24.3478,15.3039 C21.7798,15.2329 17.7748,13.6319 15.9998,11.9659 C14.2258,13.6319 10.2208,15.2329 7.6538,15.3039 C7.6968,16.5759 8.2368,18.1239 9.1898,19.7569 C9.8178,19.6279 10.5068,19.5469 11.2598,19.5469" id="Fill-13"></path>
        </g>
    </g>
</svg>