<?xml version="1.0" encoding="UTF-8"?>
<svg width="32px" height="32px" viewBox="0 0 32 32" version="1.1" xmlns="http://www.w3.org/2000/svg" xmlns:xlink="http://www.w3.org/1999/xlink">
    <!-- Generator: Sketch 43.2 (39069) - http://www.bohemiancoding.com/sketch -->
    <title>svg/ic_map_poi_046</title>
    <desc>Created with Sketch.</desc>
    <defs></defs>
    <g id="Assets-white-32x32" stroke="none" stroke-width="1" fill="none" fill-rule="evenodd">
        <g id="ic_map_poi_046" fill="#ffffff">
            <path d="M12.0078,22.9785 C8.0738,22.9785 5.4918,20.8325 5.3528,20.7135 C4.9318,20.3565 4.8798,19.7255 5.2378,19.3045 C5.5958,18.8845 6.2268,18.8325 6.6458,19.1885 C6.8048,19.3235 10.3338,22.1945 15.2388,20.3955 C23.2128,16.8085 26.6528,21.1715 26.7958,21.3585 C27.1298,21.7975 27.0448,22.4255 26.6058,22.7595 C26.1658,23.0945 25.5368,23.0085 25.2038,22.5695 C25.1038,22.4435 22.5058,19.3205 15.9938,22.2465 C14.5588,22.7745 13.2188,22.9785 12.0078,22.9785" id="Fill-2"></path>
            <path d="M22.333,9 C21.228,9 20.333,9.895 20.333,11 C20.333,12.104 21.228,13 22.333,13 C23.438,13 24.333,12.104 24.333,11 C24.333,9.895 23.438,9 22.333,9" id="Fill-4"></path>
            <path d="M10,18 C10.278,18 10.529,17.885 10.711,17.701 L10.713,17.703 L13.01,15 L16.175,15 L12.607,18.568 C13.682,18.52 14.822,18.264 16.001,17.667 C17.688,16.883 19.435,16.588 21.017,16.533 L21.017,14.938 L20.994,14.938 C20.961,13.88 20.109,13.031 19.05,13.005 L19.05,13 L13.006,13 L13,13 C12.466,13 11.983,13.213 11.624,13.554 L11.623,13.553 L11.616,13.561 C11.513,13.66 11.418,13.769 11.338,13.888 L9.299,16.289 C9.115,16.47 9,16.721 9,17 C9,17.553 9.448,18 10,18" id="Fill-6"></path>
        </g>
    </g>
</svg>