<?xml version="1.0" encoding="UTF-8"?>
<svg width="32px" height="32px" viewBox="0 0 32 32" version="1.1" xmlns="http://www.w3.org/2000/svg" xmlns:xlink="http://www.w3.org/1999/xlink">
    <!-- Generator: Sketch 43.2 (39069) - http://www.bohemiancoding.com/sketch -->
    <title>svg/ic_map_poi_097</title>
    <desc>Created with Sketch.</desc>
    <defs></defs>
    <g id="Assets-white-32x32" stroke="none" stroke-width="1" fill="none" fill-rule="evenodd">
        <g id="ic_map_poi_097" fill="#ffffff">
            <path d="M11.9365,7.9977 C11.9365,9.1027 11.0545,9.9997 9.9685,9.9997 C8.8825,9.9997 8.0005,9.1027 8.0005,7.9977 C8.0005,6.8937 8.8825,5.9997 9.9685,5.9997 C11.0545,5.9997 11.9365,6.8937 11.9365,7.9977" id="Fill-3"></path>
            <path d="M21.4683,9.9997 C22.5553,9.9997 23.4363,9.1037 23.4363,7.9977 C23.4363,6.8947 22.5553,6.0007 21.4683,6.0007 C20.3823,6.0007 19.5003,6.8947 19.5003,7.9977 C19.5003,9.1037 20.3823,9.9997 21.4683,9.9997" id="Fill-5"></path>
            <path d="M26.8868,16.6857 L26.8918,16.6847 L26.8688,16.6277 C26.8648,16.6187 26.8618,16.6087 26.8578,16.5987 L24.8778,11.9847 C24.6188,11.4067 24.1328,11.0007 23.4968,11.0007 C23.4098,11.0007 23.3328,10.9997 23.3328,10.9997 L21.3848,10.9997 L22.0208,10.9997 L21.6718,10.9997 L20.5928,10.9997 C20.5928,10.9997 19.5318,11.0007 19.4448,11.0007 C18.8088,11.0007 18.3378,11.4117 18.0628,11.9847 L16.0838,16.5987 C16.0798,16.6087 16.0758,16.6187 16.0718,16.6277 L16.0498,16.6847 L16.0548,16.6857 C16.0218,16.7847 15.9998,16.8887 15.9998,16.9997 C15.9998,17.5527 16.4408,18.0007 16.9838,18.0007 C17.4258,18.0007 17.7948,17.7027 17.9198,17.2957 L17.9278,17.2987 L18.9808,14.5847 C19.0898,14.3317 19.3768,14.2097 19.6308,14.3137 C19.8898,14.4187 20.0148,14.7177 19.9108,14.9797 L19.9108,14.9817 L19.9078,14.9857 L18.0078,20.7197 L18.0118,20.7197 C17.9868,20.8087 17.9688,20.9017 17.9688,20.9997 C17.9688,21.5527 18.4088,22.0007 18.9528,22.0007 L18.9558,21.9997 L19.9368,21.9997 L19.9368,24.9997 C19.9368,25.5527 20.3768,25.9997 20.9208,25.9997 L22.0208,25.9997 C22.5638,25.9997 23.0048,25.5527 23.0048,24.9997 L23.0048,21.9997 L23.9858,21.9997 L23.9888,22.0007 C24.5318,22.0007 24.9728,21.5527 24.9728,20.9997 C24.9728,20.9017 24.9548,20.8087 24.9288,20.7197 L24.9338,20.7197 L23.0458,14.9877 L23.0478,14.9837 L23.0468,14.9817 C22.8968,14.6017 23.0628,14.4157 23.3008,14.3087 C23.5338,14.2037 23.7988,14.3267 23.8988,14.5827 L25.0128,17.2987 L25.0218,17.2957 C25.1468,17.7027 25.5158,18.0007 25.9568,18.0007 C26.4998,18.0007 26.9408,17.5527 26.9408,16.9997 C26.9408,16.8887 26.9198,16.7847 26.8868,16.6857" id="Fill-7"></path>
            <path d="M13.998,14.9902 L13.998,13.0002 C13.998,11.8952 13.117,11.0002 12.03,11.0002 L7.968,11.0002 C6.881,11.0002 6,11.8952 6,13.0002 L6,15.0002 L6,18.0002 C6,18.5522 6.441,19.0002 6.984,19.0002 L7.968,19.0002 L7.968,25.0002 C7.968,25.5522 8.416,26.0002 8.968,26.0002 L10.968,26.0002 C11.521,26.0002 11.968,25.5522 11.968,25.0002 L11.968,19.0002 L12.889,19.0002 L12.889,18.9742 C12.932,18.9802 12.971,19.0002 13.016,19.0002 C13.559,19.0002 14,18.5522 14,18.0002 L14,15.0002 C14,14.9962 13.998,14.9932 13.998,14.9902" id="Fill-9"></path>
        </g>
    </g>
</svg>