<?xml version="1.0" encoding="UTF-8"?>
<svg width="32px" height="32px" viewBox="0 0 32 32" version="1.1" xmlns="http://www.w3.org/2000/svg" xmlns:xlink="http://www.w3.org/1999/xlink">
    <!-- Generator: Sketch 43.2 (39069) - http://www.bohemiancoding.com/sketch -->
    <title>svg/ic_map_poi_088</title>
    <desc>Created with Sketch.</desc>
    <defs></defs>
    <g id="Assets-white-32x32" stroke="none" stroke-width="1" fill="none" fill-rule="evenodd">
        <g id="ic_map_poi_088" fill="#ffffff">
            <path d="M16,14.667 C16.736,14.667 17.334,15.264 17.334,16 C17.334,16.736 16.736,17.333 16,17.333 C15.264,17.333 14.666,16.736 14.666,16 C14.666,15.264 15.264,14.667 16,14.667 L16,14.667 Z M20,28 L18.038,18.19 C18.626,17.642 19,16.867 19,16 C19,14.343 17.656,13 16,13 C14.344,13 13,14.343 13,16 C13,16.867 13.374,17.642 13.962,18.19 L12,28 L14.053,28 L15.809,18.981 C15.873,18.985 15.935,19 16,19 C16.065,19 16.127,18.985 16.191,18.981 L17.947,28 L20,28 Z" id="Fill-2"></path>
            <path d="M19.2969,13.7373 L21.4629,11.5723 C21.0759,11.3413 20.7439,11.0263 20.4959,10.6513 L18.3669,12.7813 C18.7289,13.0463 19.0429,13.3683 19.2969,13.7373" id="Fill-4"></path>
            <path d="M13.6934,12.7354 L11.5434,10.5854 C11.3044,10.9664 10.9844,11.2914 10.6034,11.5324 L12.7484,13.6764 C13.0094,13.3124 13.3284,12.9944 13.6934,12.7354" id="Fill-6"></path>
            <path d="M11.543,21.415 L12.51,20.448 L12.897,18.515 C12.846,18.452 12.795,18.39 12.748,18.324 L10.605,20.468 C10.984,20.709 11.305,21.033 11.543,21.415" id="Fill-8"></path>
            <path d="M19.498,20.4863 L20.445,21.4333 C20.681,21.0503 20.998,20.7233 21.377,20.4793 L19.238,18.3413 C19.195,18.4003 19.148,18.4563 19.103,18.5133 L19.498,20.4863 Z" id="Fill-10"></path>
            <path d="M28,16 C28,14.944 27.178,14.088 26.141,14.014 C25.881,12.682 25.354,11.394 24.568,10.228 C24.834,9.888 25,9.466 25,9 C25,7.895 24.104,7 23,7 C22.535,7 22.112,7.166 21.772,7.432 C20.606,6.645 19.318,6.118 17.986,5.858 C17.912,4.821 17.056,4 16,4 C14.944,4 14.088,4.821 14.014,5.858 C12.682,6.118 11.394,6.645 10.228,7.432 C9.888,7.166 9.466,7 9,7 C7.896,7 7,7.895 7,9 C7,9.466 7.166,9.888 7.433,10.228 C6.646,11.394 6.119,12.682 5.859,14.014 C4.822,14.088 4,14.944 4,16 C4,17.056 4.822,17.912 5.859,17.986 C6.119,19.318 6.646,20.606 7.433,21.772 C7.166,22.111 7,22.534 7,23 C7,24.104 7.896,25 9,25 C9.561,25 10.067,24.767 10.43,24.395 C10.807,24.634 11.193,24.856 11.592,25.042 L11.861,23.688 C11.559,23.534 11.272,23.342 10.985,23.151 C10.989,23.1 11,23.052 11,23 C11,21.895 10.104,21 9,21 C8.847,21 8.7,21.021 8.557,21.053 C7.842,20.002 7.373,18.836 7.152,17.631 C7.664,17.268 8,16.675 8,16 C8,15.325 7.664,14.732 7.152,14.369 C7.373,13.164 7.842,11.998 8.557,10.947 C8.7,10.979 8.847,11 9,11 C10.104,11 11,10.104 11,9 C11,8.847 10.979,8.7 10.947,8.557 C11.998,7.842 13.164,7.373 14.369,7.152 C14.732,7.664 15.325,8 16,8 C16.675,8 17.268,7.664 17.631,7.152 C18.836,7.373 20.002,7.842 21.053,8.557 C21.021,8.7 21,8.847 21,9 C21,10.104 21.896,11 23,11 C23.153,11 23.3,10.979 23.443,10.947 C24.158,11.998 24.627,13.164 24.848,14.369 C24.336,14.732 24,15.325 24,16 C24,16.675 24.336,17.268 24.848,17.631 C24.627,18.836 24.158,20.002 23.443,21.053 C23.3,21.021 23.153,21 23,21 C21.896,21 21,21.895 21,23 C21,23.071 21.014,23.139 21.021,23.208 C20.762,23.375 20.507,23.55 20.236,23.688 L20.508,25.042 C20.885,24.866 21.25,24.657 21.609,24.433 C21.969,24.783 22.458,25 23,25 C24.104,25 25,24.104 25,23 C25,22.534 24.834,22.111 24.568,21.772 C25.354,20.606 25.881,19.318 26.141,17.986 C27.178,17.912 28,17.056 28,16" id="Fill-12"></path>
        </g>
    </g>
</svg>