<?xml version="1.0" encoding="UTF-8"?>
<svg width="32px" height="32px" viewBox="0 0 32 32" version="1.1" xmlns="http://www.w3.org/2000/svg" xmlns:xlink="http://www.w3.org/1999/xlink">
    <!-- Generator: Sketch 43.2 (39069) - http://www.bohemiancoding.com/sketch -->
    <title>svg/ic_map_poi_063</title>
    <desc>Created with Sketch.</desc>
    <defs></defs>
    <g id="Assets-white-32x32" stroke="none" stroke-width="1" fill="none" fill-rule="evenodd">
        <g id="ic_map_poi_063" fill="#ffffff">
            <polygon id="Fill-2" points="14 29 18 29 18 24 14 24"></polygon>
            <path d="M14,7 C14,5.895 14.895,5 16,5 C17.105,5 18,5.895 18,7 L14,7 Z" id="Fill-3"></path>
            <path d="M17.6758,15.9775 L16.9838,15.9775 L16.9838,17.8245 L17.6968,17.8245 C18.2948,17.8245 19.0088,17.6255 19.0088,16.9015 C19.0088,16.1035 18.3058,15.9775 17.6758,15.9775" id="Fill-5"></path>
            <path d="M18.8936,14.0146 C18.8936,13.3746 18.3166,13.1756 17.7816,13.1756 L16.9836,13.1756 L16.9836,14.8966 L17.6866,14.8966 C18.2746,14.8966 18.8936,14.7076 18.8936,14.0146" id="Fill-7"></path>
            <polygon id="Fill-9" points="8.9697 16.0088 10.8687 16.0088 9.9357 13.2068"></polygon>
            <path d="M25.9141,19 L23.9511,19 L23.9511,13.941 L22.4611,15.022 L21.8521,13.616 L24.2231,12 L25.9141,12 L25.9141,19 Z M18.1781,19 L14.9141,19 L14.9141,12 L18.4821,12 C19.6151,12 20.8441,12.378 20.8441,13.731 C20.8441,14.655 20.3181,15.19 19.4361,15.39 C20.3291,15.547 21.0011,16.082 21.0011,17.037 C21.0011,18.737 19.5621,19 18.1781,19 L18.1781,19 Z M11.7071,19 L11.1611,17.363 L8.5061,17.363 L7.9501,19 L5.9141,19 L8.4851,12 L11.2661,12 L13.8691,19 L11.7071,19 Z M26.0001,9 L6.0001,9 C4.9001,9 4.0001,9.9 4.0001,11 L4.0001,20 C4.0001,21.1 4.9001,22 6.0001,22 L26.0001,22 C27.0991,22 28.0001,21.1 28.0001,20 L28.0001,11 C28.0001,9.9 27.0991,9 26.0001,9 L26.0001,9 Z" id="Fill-11"></path>
        </g>
    </g>
</svg>