<?xml version="1.0" encoding="UTF-8"?>
<svg width="32px" height="32px" viewBox="0 0 32 32" version="1.1" xmlns="http://www.w3.org/2000/svg" xmlns:xlink="http://www.w3.org/1999/xlink">
    <!-- Generator: Sketch 43.2 (39069) - http://www.bohemiancoding.com/sketch -->
    <title>svg/ic_map_poi_091</title>
    <desc>Created with Sketch.</desc>
    <defs></defs>
    <g id="Assets-white-32x32" stroke="none" stroke-width="1" fill="none" fill-rule="evenodd">
        <g id="ic_map_poi_091" fill="#ffffff">
            <path d="M16.0198,5 C13.8148,5 12.0198,6.794 12.0198,9 L14.0068,8.999 C14.0068,7.892 14.9078,6.991 16.0148,6.991 C17.1228,6.991 18.0228,7.892 18.0228,8.999 L20.0198,9 C20.0198,6.794 18.2258,5 16.0198,5" id="Fill-2"></path>
            <path d="M16.3906,17.5322 C15.8936,18.1242 16.2696,18.7112 16.6856,18.7112 C17.1026,18.7112 17.3566,18.3142 17.3566,18.3142 L18.0176,16.7192 C18.0176,16.7192 17.2346,16.5252 16.3906,17.5322" id="Fill-4"></path>
            <path d="M21.5078,14.708 C20.8668,13.938 19.8228,13.471 18.4898,13.471 C15.5898,13.471 12.4178,15.683 11.4078,18.411 C10.9438,19.664 11.0178,20.809 11.5128,21.68 C12.0958,22.704 13.2628,23.351 14.8308,23.351 C16.4428,23.351 18.1368,22.667 19.4978,21.593 L19.8038,22.033 C18.2958,23.278 16.3808,24.077 14.5618,24.077 C12.7868,24.077 11.4828,23.316 10.8768,22.123 C10.4038,21.193 10.3558,20.001 10.8368,18.701 C11.9368,15.732 15.3878,13.325 18.5438,13.325 C19.9268,13.325 21.0238,13.787 21.7278,14.555 L21.5078,14.708 Z M18.1708,15.397 L18.2318,14.19 L17.4098,15.381 C16.7958,15.45 16.1768,15.707 15.7078,16.01 L14.8038,14.705 C15.8768,14.055 17.1828,13.616 18.4378,13.616 C19.7238,13.616 20.7248,14.079 21.3228,14.837 L19.3768,16.194 C19.1488,15.784 18.7308,15.494 18.1708,15.397 L18.1708,15.397 Z M14.5538,19.72 C14.8028,20.011 15.0938,20.104 15.5548,20.176 L15.4118,21.803 L16.4848,20.159 C17.0178,20.064 17.5478,19.832 18.0158,19.509 L19.2838,21.34 C18.1028,22.242 16.6698,22.833 15.2808,22.906 L15.2428,22.279 L14.7428,22.909 C13.4248,22.846 12.5098,22.387 11.9828,21.514 L14.5538,19.72 Z M17.9358,19.199 L17.0918,19.199 L17.0608,19.067 C17.0608,19.067 16.7148,19.229 16.2788,19.229 C15.8408,19.229 14.7938,18.823 15.4948,17.512 C16.1968,16.2 17.5898,16.139 17.8338,16.139 C18.5258,16.139 18.8698,16.444 18.8698,16.444 L17.9658,18.793 C17.9658,18.793 17.9148,18.955 17.9248,19.077 L17.9358,19.199 Z M12.0718,17.592 C12.6578,16.477 13.6158,15.489 14.6468,14.815 L15.5498,16.12 C15.0198,16.52 14.5128,17.12 14.2668,17.784 C13.9958,18.515 14.0738,19.13 14.4528,19.574 L11.8808,21.368 C11.3818,20.541 11.3218,19.476 11.7708,18.266 C11.7968,18.194 11.8248,18.124 11.8548,18.054 L12.5788,17.812 L12.0718,17.592 Z M8.9998,26 L22.9998,26 L22.9998,11 L8.9998,11 L8.9998,26 Z" id="Fill-6"></path>
        </g>
    </g>
</svg>