<?xml version="1.0" encoding="UTF-8"?>
<svg width="32px" height="32px" viewBox="0 0 32 32" version="1.1" xmlns="http://www.w3.org/2000/svg" xmlns:xlink="http://www.w3.org/1999/xlink">
    <!-- Generator: Sketch 43.2 (39069) - http://www.bohemiancoding.com/sketch -->
    <title>svg/ic_map_poi_027</title>
    <desc>Created with Sketch.</desc>
    <defs></defs>
    <g id="Assets-white-32x32" stroke="none" stroke-width="1" fill="none" fill-rule="evenodd">
        <g id="ic_map_poi_027" fill="#ffffff">
            <path d="M20.4249,24.8477 L17.2479,22.8087 C17.2479,22.8087 15.9999,21.1767 15.9999,20.7987 L15.9999,13.4997 C15.9999,12.1197 14.8799,10.9997 13.4999,10.9997 C12.1189,10.9997 10.9999,12.1197 10.9999,13.4997 L10.9999,20.7987 C10.9999,21.7237 11.5039,22.5267 12.2509,22.9557 C12.5819,23.1457 15.4889,24.6497 15.4889,24.6497 L12.2499,24.6497 C11.5599,24.6497 10.9999,25.2087 10.9999,25.8997 C10.9999,26.5897 11.5599,27.1497 12.2499,27.1497 L19.7499,27.1497 C20.3039,27.1497 20.7929,26.7837 20.9489,26.2517 C21.1049,25.7187 20.8919,25.1477 20.4249,24.8477" id="Fill-2"></path>
            <path d="M17.5,11 C18.881,11 20,9.881 20,8.5 C20,7.119 18.881,6 17.5,6 C16.119,6 15,7.119 15,8.5 C15,9.881 16.119,11 17.5,11" id="Fill-4"></path>
        </g>
    </g>
</svg>