<?xml version="1.0" encoding="UTF-8"?>
<svg width="32px" height="32px" viewBox="0 0 32 32" version="1.1" xmlns="http://www.w3.org/2000/svg" xmlns:xlink="http://www.w3.org/1999/xlink">
    <!-- Generator: Sketch 43.2 (39069) - http://www.bohemiancoding.com/sketch -->
    <title>svg/ic_map_poi_015</title>
    <desc>Created with Sketch.</desc>
    <defs></defs>
    <g id="Assets-white-32x32" stroke="none" stroke-width="1" fill="none" fill-rule="evenodd">
        <g id="ic_map_poi_015" fill="#ffffff">
            <path d="M17,23 C17,21.895 16.105,21 15,21 L7,21 C5.896,21 5,21.895 5,23 L17,23 Z" id="Fill-2"></path>
            <path d="M16.5654,10.3711 L11.9604,7.7121 C11.1294,8.2831 10.4064,9.0381 9.8694,9.9691 C9.3314,10.8991 9.0404,11.9031 8.9604,12.9081 L13.5654,15.5671 C14.3944,14.9951 15.1184,14.2411 15.6564,13.3101 C16.1934,12.3791 16.4844,11.3751 16.5654,10.3711" id="Fill-4"></path>
            <path d="M17.7471,9.7451 C17.5771,9.7451 17.4051,9.7021 17.2481,9.6111 L12.0521,6.6111 C11.5731,6.3361 11.4091,5.7241 11.6851,5.2451 C11.9621,4.7671 12.5731,4.6021 13.0521,4.8791 L18.2481,7.8791 C18.7271,8.1551 18.8901,8.7661 18.6141,9.2451 C18.4291,9.5651 18.0931,9.7451 17.7471,9.7451" id="Fill-6"></path>
            <path d="M12.7471,18.4053 C12.5771,18.4053 12.4051,18.3623 12.2481,18.2713 L7.0531,15.2703 C6.5741,14.9943 6.4101,14.3823 6.6861,13.9043 C6.9631,13.4253 7.5751,13.2613 8.0531,13.5383 L13.2481,16.5393 C13.7261,16.8153 13.8901,17.4263 13.6141,17.9053 C13.4291,18.2263 13.0931,18.4053 12.7471,18.4053" id="Fill-8"></path>
            <path d="M27.1895,19.9688 C27.5765,19.2988 27.3865,18.4518 26.7735,18.0068 L26.7785,17.9988 L17.5465,12.6698 L16.0465,15.2678 L25.2785,20.5978 L25.2825,20.5898 C25.9745,20.8978 26.8025,20.6398 27.1895,19.9688" id="Fill-10"></path>
        </g>
    </g>
</svg>