<?xml version="1.0" encoding="UTF-8"?>
<svg width="32px" height="32px" viewBox="0 0 32 32" version="1.1" xmlns="http://www.w3.org/2000/svg" xmlns:xlink="http://www.w3.org/1999/xlink">
    <!-- Generator: Sketch 43.2 (39069) - http://www.bohemiancoding.com/sketch -->
    <title>svg/ic_map_poi_081</title>
    <desc>Created with Sketch.</desc>
    <defs></defs>
    <g id="Assets-white-32x32" stroke="none" stroke-width="1" fill="none" fill-rule="evenodd">
        <g id="ic_map_poi_081" fill="#ffffff">
            <path d="M22.999,12 C22.798,12 22.595,11.939 22.418,11.813 L16,7.229 L9.581,11.813 C9.132,12.135 8.508,12.03 8.185,11.581 C7.865,11.132 7.969,10.507 8.418,10.186 L15.418,5.186 C15.766,4.938 16.233,4.938 16.581,5.186 L23.581,10.186 C24.03,10.507 24.135,11.132 23.813,11.581 C23.618,11.854 23.31,12 22.999,12" id="Fill-2"></path>
            <path d="M18.8574,16.8564 C18.8574,18.4344 17.5784,19.7134 16.0004,19.7134 C14.4214,19.7134 13.1424,18.4344 13.1424,16.8564 C13.1424,15.2794 14.4214,14.0004 16.0004,14.0004 C17.5784,14.0004 18.8574,15.2794 18.8574,16.8564" id="Fill-4"></path>
            <path d="M18.5615,20.2842 C17.8455,20.8212 16.9595,21.1432 15.9995,21.1432 C15.0395,21.1432 14.1535,20.8212 13.4375,20.2842 C12.5685,20.7202 11.9535,21.3702 11.7735,22.1172 C12.8195,23.2702 14.3245,24.0002 15.9995,24.0002 C17.6745,24.0002 19.1795,23.2702 20.2255,22.1172 C20.0465,21.3702 19.4315,20.7202 18.5615,20.2842" id="Fill-6"></path>
            <path d="M23.7676,17.4287 C23.7676,18.2177 23.1276,18.8577 22.3386,18.8577 C21.5496,18.8577 20.9106,18.2177 20.9106,17.4287 C20.9106,16.6397 21.5496,15.9997 22.3386,15.9997 C23.1276,15.9997 23.7676,16.6397 23.7676,17.4287" id="Fill-8"></path>
            <path d="M11.0889,17.4287 C11.0889,18.2177 10.4489,18.8577 9.6599,18.8577 C8.8719,18.8577 8.2329,18.2177 8.2329,17.4287 C8.2329,16.6397 8.8719,15.9997 9.6599,15.9997 C10.4489,15.9997 11.0889,16.6397 11.0889,17.4287" id="Fill-10"></path>
            <path d="M21.9326,20.9678 C22.0656,20.9858 22.2006,20.9998 22.3386,20.9998 C23.1756,20.9998 23.9286,20.6348 24.4526,20.0588 C24.3626,19.6848 24.0546,19.3608 23.6196,19.1428 C23.2616,19.4098 22.8196,19.5718 22.3386,19.5718 C21.8576,19.5718 21.4156,19.4098 21.0576,19.1428 C20.9366,19.2028 20.8276,19.2728 20.7276,19.3488 C21.2616,19.8178 21.6696,20.3638 21.9326,20.9678" id="Fill-12"></path>
            <path d="M10.0664,20.9678 C10.3304,20.3638 10.7374,19.8178 11.2714,19.3488 C11.1714,19.2728 11.0624,19.2028 10.9414,19.1428 C10.5844,19.4098 10.1404,19.5718 9.6604,19.5718 C9.1794,19.5718 8.7374,19.4098 8.3794,19.1428 C7.9444,19.3608 7.6364,19.6848 7.5464,20.0588 C8.0704,20.6348 8.8234,20.9998 9.6604,20.9998 C9.7984,20.9998 9.9334,20.9858 10.0664,20.9678" id="Fill-14"></path>
        </g>
    </g>
</svg>