<?xml version="1.0" encoding="UTF-8"?>
<svg width="32px" height="32px" viewBox="0 0 32 32" version="1.1" xmlns="http://www.w3.org/2000/svg" xmlns:xlink="http://www.w3.org/1999/xlink">
    <!-- Generator: Sketch 43.2 (39069) - http://www.bohemiancoding.com/sketch -->
    <title>svg/ic_map_poi_064</title>
    <desc>Created with Sketch.</desc>
    <defs></defs>
    <g id="Assets-white-32x32" stroke="none" stroke-width="1" fill="none" fill-rule="evenodd">
        <g id="ic_map_poi_064" fill="#ffffff">
            <path d="M26,17 C26,15.956 25.466,15.037 24.657,14.5 C25.466,13.963 26,13.044 26,12 C26,10.343 24.657,9 23,9 C22.966,9 22.934,9.004 22.9,9.005 C22.438,6.721 20.42,5 18,5 C16.769,5 15.644,5.447 14.772,6.186 C14.368,6.066 13.942,6 13.5,6 C11.536,6 9.871,7.26 9.257,9.013 C9.172,9.006 9.087,9 9,9 C7.343,9 6,10.343 6,12 C6,13.044 6.534,13.963 7.343,14.5 C6.534,15.037 6,15.956 6,17 C6,18.044 6.534,18.963 7.343,19.5 C6.534,20.037 6,20.956 6,22 C6,23.657 7.343,25 9,25 L9,20 L9,19 L9,15 L9,14.391 L9,14 L9,12.123 C9.131,12.199 9.265,12.271 9.398,12.343 C9.399,12.345 9.399,12.347 9.399,12.347 C9.688,12.502 9.982,12.643 10.28,12.776 C10.375,12.818 10.47,12.86 10.565,12.901 C10.662,12.942 10.76,12.981 10.858,13.02 C10.905,13.039 10.952,13.06 11,13.077 C11.042,13.094 11.086,13.106 11.128,13.122 C11.287,13.181 11.447,13.237 11.608,13.29 C11.637,13.3 11.663,13.311 11.691,13.319 L11.692,13.317 C12.731,13.652 13.822,13.873 14.952,13.957 C15.298,13.982 15.647,14 16,14 C16.113,14 16.225,13.994 16.337,13.991 C17.721,13.959 19.053,13.724 20.308,13.318 C20.309,13.318 20.309,13.319 20.309,13.319 C20.41,13.286 20.51,13.249 20.61,13.214 C20.727,13.173 20.847,13.135 20.962,13.091 C20.975,13.086 20.987,13.082 21,13.077 C21.202,13 21.401,12.917 21.599,12.83 C21.649,12.809 21.698,12.785 21.749,12.763 C21.909,12.69 22.069,12.614 22.227,12.536 C22.263,12.519 22.3,12.503 22.335,12.484 C22.336,12.483 22.337,12.481 22.337,12.481 C22.561,12.366 22.783,12.249 23,12.123 L23,14 L23,14.391 L23,15 L23,19 L23,20 L23,25 C24.657,25 26,23.657 26,22 C26,20.956 25.466,20.037 24.657,19.5 C25.466,18.963 26,18.044 26,17" id="Fill-2"></path>
            <path d="M18.5,19.9541 C17.671,19.9541 17,19.2831 17,18.4541 C17,17.6261 17.671,16.9541 18.5,16.9541 C19.329,16.9541 20,17.6261 20,18.4541 C20,19.2831 19.329,19.9541 18.5,19.9541 M16.419,23.6271 C16.077,23.3801 16.01,23.1931 16,23.0171 C15.991,23.1931 15.924,23.3801 15.582,23.6271 C14.602,24.3361 13,23.8151 13,23.8151 C13.583,23.8151 13.826,22.8921 14.249,22.5101 C15.311,21.5521 15.997,22.2371 15.997,22.2371 L16.003,22.2371 C16.003,22.2371 16.688,21.5521 17.751,22.5101 C18.174,22.8921 18.417,23.8151 19,23.8151 C19,23.8151 17.397,24.3361 16.419,23.6271 M12,18.4541 C12,17.6261 12.671,16.9541 13.5,16.9541 C14.329,16.9541 15,17.6261 15,18.4541 C15,19.2831 14.329,19.9541 13.5,19.9541 C12.671,19.9541 12,19.2831 12,18.4541 M20.364,15.3921 C20.352,15.3961 20.342,15.3991 20.33,15.4021 C20.285,15.4151 20.239,15.4261 20.194,15.4371 C20.046,15.4781 19.897,15.5181 19.747,15.5551 C19.746,15.5551 19.745,15.5551 19.743,15.5561 C19.688,15.5681 19.633,15.5811 19.578,15.5941 C19.535,15.6031 19.491,15.6111 19.448,15.6211 C19.326,15.6481 19.204,15.6751 19.081,15.6991 C19.065,15.7021 19.05,15.7061 19.034,15.7091 C18.956,15.7241 18.877,15.7371 18.798,15.7511 C18.79,15.7531 18.782,15.7541 18.774,15.7551 C18.651,15.7761 18.527,15.7981 18.403,15.8161 C18.37,15.8211 18.338,15.8281 18.305,15.8331 C18.258,15.8401 18.21,15.8451 18.162,15.8501 C18.004,15.8721 17.846,15.8921 17.686,15.9081 C17.643,15.9131 17.599,15.9191 17.556,15.9241 C17.527,15.9271 17.499,15.9281 17.471,15.9301 C17.299,15.9461 17.126,15.9581 16.952,15.9691 C16.897,15.9731 16.843,15.9771 16.787,15.9801 C16.772,15.9801 16.758,15.9801 16.743,15.9811 C16.497,15.9931 16.249,16.0001 16,16.0001 C15.757,16.0001 15.517,15.9931 15.276,15.9821 C15.27,15.9821 15.263,15.9811 15.256,15.9811 C15.118,15.9741 14.982,15.9641 14.846,15.9541 C14.751,15.9471 14.655,15.9411 14.561,15.9331 C14.55,15.9331 14.538,15.9311 14.527,15.9301 C14.313,15.9101 14.1,15.8851 13.887,15.8561 C13.875,15.8551 13.863,15.8541 13.852,15.8521 C13.848,15.8521 13.844,15.8511 13.84,15.8501 C12.862,15.7191 11.913,15.4991 11.001,15.1991 L11,15.1991 L11,22.7641 C12.172,25.3451 13.976,27.0001 16,27.0001 C18.024,27.0001 19.827,25.3451 21,22.7641 L21,15.1991 C20.79,15.2681 20.578,15.3321 20.364,15.3921" id="Fill-4"></path>
        </g>
    </g>
</svg>