<?xml version="1.0" encoding="UTF-8"?>
<svg width="32px" height="32px" viewBox="0 0 32 32" version="1.1" xmlns="http://www.w3.org/2000/svg" xmlns:xlink="http://www.w3.org/1999/xlink">
    <!-- Generator: Sketch 43.2 (39069) - http://www.bohemiancoding.com/sketch -->
    <title>svg/ic_map_poi_004</title>
    <desc>Created with Sketch.</desc>
    <defs></defs>
    <g id="Assets-white-32x32" stroke="none" stroke-width="1" fill="none" fill-rule="evenodd">
        <g id="ic_map_poi_004" fill="#ffffff">
            <path d="M28.0449,7.8609 L22.0079,11.1079 L22.0079,11.1239 C21.4089,11.4689 21.0009,12.1089 20.9999,12.8499 L20.9999,12.8499 L20.9999,16.8509 C20.9999,19.0599 20.1049,20.8509 18.9999,20.8509 L18.9999,22.8509 C21.2079,22.8509 22.9969,20.1679 22.9999,16.8579 L22.9999,16.8579 L22.9999,15.8509 C24.1049,15.8509 24.9999,14.9559 24.9999,13.8509 L24.9999,13.8479 L24.9999,13.8479 L25.0009,11.4989 L28.0389,9.8609 L28.0449,7.8609 Z" id="Fill-2"></path>
            <path d="M6.9999,14.854 L6.9999,8.881 C6.9999,8.328 7.4479,7.881 7.9999,7.881 L15.9999,7.881 C16.5519,7.881 16.9999,8.328 16.9999,8.881 L16.9999,14.854 C16.9999,15.407 16.5519,15.854 15.9999,15.854 L15.1269,15.854 L8.3819,15.854 L7.9999,15.854 C7.4479,15.854 6.9999,15.407 6.9999,14.854 M15.9999,5.881 L7.9999,5.881 C6.5229,5.881 4.9999,7.379 4.9999,8.881 L4.9999,16 C4.9999,17.416 5.9989,18.529 7.0089,19.003 L7.0139,24.127 C6.4109,24.471 5.9999,25.113 5.9999,25.857 L17.9999,25.857 C17.9999,25.12 17.5969,24.483 17.0029,24.136 L17.0139,19.041 C17.9649,18.554 18.9999,17.528 18.9999,16 L18.9999,8.881 C18.9999,7.379 17.5249,5.881 15.9999,5.881" id="Fill-4"></path>
        </g>
    </g>
</svg>