<?xml version="1.0" encoding="UTF-8"?>
<svg width="32px" height="32px" viewBox="0 0 32 32" version="1.1" xmlns="http://www.w3.org/2000/svg" xmlns:xlink="http://www.w3.org/1999/xlink">
    <!-- Generator: Sketch 43.2 (39069) - http://www.bohemiancoding.com/sketch -->
    <title>svg/ic_map_poi_115</title>
    <desc>Created with Sketch.</desc>
    <defs></defs>
    <g id="Assets-white-32x32" stroke="none" stroke-width="1" fill="none" fill-rule="evenodd">
        <g id="ic_map_poi_115" fill="#ffffff">
            <path d="M22.0002,7.9976 L20.0002,7.9976 L20.0002,6.4976 C19.9202,6.4116 19.2022,5.9976 18.0002,5.9976 L14.0002,5.9976 C12.7982,5.9976 12.0802,6.4116 11.9822,6.5836 L12.0002,7.9976 L10.0002,7.9976 L10.0002,6.4976 C10.0002,5.0486 11.6822,3.9976 14.0002,3.9976 L18.0002,3.9976 C20.3182,3.9976 22.0002,5.0486 22.0002,6.4976 L22.0002,7.9976 Z" id="Fill-3"></path>
            <path d="M21.9999,18.9974 L17.9999,18.9974 L17.9999,22.9974 L13.9999,22.9974 L13.9999,18.9974 L9.9999,18.9974 L9.9999,14.9974 L13.9999,14.9974 L13.9999,10.9974 L17.9999,10.9974 L17.9999,14.9974 L21.9999,14.9974 L21.9999,18.9974 Z M23.9999,8.9974 L7.9999,8.9974 C6.8999,8.9974 5.9999,9.8974 5.9999,10.9974 L5.9999,22.9974 C5.9999,24.0974 6.8999,24.9974 7.9999,24.9974 L23.9999,24.9974 C25.0999,24.9974 25.9999,24.0974 25.9999,22.9974 L25.9999,10.9974 C25.9999,9.8974 25.0999,8.9974 23.9999,8.9974 L23.9999,8.9974 Z" id="Fill-5"></path>
        </g>
    </g>
</svg>