<?xml version="1.0" encoding="UTF-8"?>
<svg width="32px" height="32px" viewBox="0 0 32 32" version="1.1" xmlns="http://www.w3.org/2000/svg" xmlns:xlink="http://www.w3.org/1999/xlink">
    <!-- Generator: Sketch 43.2 (39069) - http://www.bohemiancoding.com/sketch -->
    <title>svg/ic_map_poi_113</title>
    <desc>Created with Sketch.</desc>
    <defs></defs>
    <g id="Assets-white-32x32" stroke="none" stroke-width="1" fill="none" fill-rule="evenodd">
        <g id="ic_map_poi_113" fill="#ffffff">
            <path d="M7.5,20 C6.671,20 6,19.328 6,18.5 C6,17.672 6.671,17 7.5,17 C8.328,17 9,17.672 9,18.5 C9,19.328 8.328,20 7.5,20 M20.379,21.701 C20.262,21.715 20.144,21.722 20.03,21.722 C19.23,21.722 18.447,21.398 17.883,20.831 L13.241,16.178 C12.9,15.836 12.661,15.431 12.518,15 L7.327,15 C7.188,15 7.118,14.896 7.17,14.768 L7.652,13.561 L8.371,11.765 C8.47,11.519 8.721,11.281 8.998,11.138 C9.165,11.052 9.341,11 9.5,11 L16.5,11 C16.658,11 16.835,11.052 17.001,11.138 C17.279,11.281 17.53,11.519 17.628,11.765 L17.776,12.136 L19.48,13.844 L19.516,13.789 L18.557,11.393 C18.249,10.624 17.328,10 16.5,10 L9.5,10 C8.671,10 7.75,10.624 7.442,11.393 L6,15 L5.5,15.5 C5.224,15.776 5,16.448 5,17 L5,22 C5,22.552 5.447,23 6,23 L8,23 C8.552,23 9,22.552 9,22 L9,21 L17,21 L17,22 C17,22.552 17.447,23 18,23 L20,23 C20.552,23 21,22.552 21,22 L21,21.561 C20.8,21.629 20.592,21.677 20.379,21.701" id="Fill-2"></path>
            <path d="M20.0303,19.7217 C19.7583,19.7217 19.4943,19.6147 19.2993,19.4187 L14.6583,14.7657 C14.2563,14.3627 14.2563,13.7077 14.6603,13.3057 C15.0643,12.9027 15.7183,12.9037 16.1213,13.3077 L19.8443,17.0387 L25.3573,8.2077 C25.6603,7.7247 26.2973,7.5767 26.7813,7.8797 C27.2643,8.1807 27.4123,8.8187 27.1093,9.3017 L20.9063,19.2367 C20.7393,19.5027 20.4603,19.6797 20.1463,19.7147 C20.1073,19.7197 20.0683,19.7217 20.0303,19.7217" id="Fill-4"></path>
        </g>
    </g>
</svg>