<?xml version="1.0" encoding="UTF-8"?>
<svg width="32px" height="32px" viewBox="0 0 32 32" version="1.1" xmlns="http://www.w3.org/2000/svg" xmlns:xlink="http://www.w3.org/1999/xlink">
    <!-- Generator: Sketch 43.2 (39069) - http://www.bohemiancoding.com/sketch -->
    <title>svg/ic_map_poi_028</title>
    <desc>Created with Sketch.</desc>
    <defs></defs>
    <g id="Assets-white-32x32" stroke="none" stroke-width="1" fill="none" fill-rule="evenodd">
        <g id="ic_map_poi_028" fill="#ffffff">
            <path d="M10.001,22 L21.999,22 L21.999,10 L10.001,10 L10.001,22 Z M24,22 C24,21.448 24.447,21.001 24.999,21 L24.998,18.985 C24.453,18.977 24.014,18.534 24.014,17.986 C24.014,17.439 24.453,16.996 24.998,16.988 L24.998,14.985 C24.451,14.979 24.01,14.535 24.01,13.986 C24.01,13.438 24.45,12.994 24.997,12.988 L24.996,10.985 C24.45,10.979 24.01,10.535 24.01,9.986 C24.01,9.439 24.45,8.995 24.996,8.988 L24.996,7 L22.996,7 C22.996,7.553 22.55,8 21.997,8 C21.444,8 20.997,7.553 20.997,7 L18.997,7 C18.997,7.553 18.551,8 17.998,8 C17.445,8 16.998,7.553 16.998,7 L14.894,7 C14.894,7.553 14.445,8 13.895,8 C13.342,8 12.895,7.553 12.895,7 L10.999,7 C10.999,7.553 10.552,8 9.999,8 C9.447,8 9,7.553 9,7 L7,7 L7,9 C7.551,9.002 7.996,9.449 7.996,10 C7.996,10.551 7.551,10.998 7,11 L7,13 C7.551,13.003 7.996,13.449 7.996,14 C7.996,14.551 7.551,14.998 7,15 L7,17 C7.553,17 8,17.448 8,18 C8,18.553 7.553,19 7,19 L7,21.015 C7.546,21.023 7.986,21.466 7.986,22.014 C7.986,22.561 7.546,23.005 7,23.012 L7,25 L9,25 C9,24.448 9.447,24 9.999,24 C10.552,24 10.999,24.448 10.999,25 L12.895,25 C12.895,24.448 13.342,24 13.895,24 C14.445,24 14.894,24.448 14.894,25 L16.998,25 C16.998,24.448 17.445,24 17.998,24 C18.551,24 18.997,24.448 18.997,25 L20.997,25 C20.997,24.448 21.444,24 21.997,24 C22.55,24 22.996,24.448 22.996,25 L25,25 L24.999,23 C24.447,23 24,22.553 24,22 L24,22 Z" id="Fill-2"></path>
            <path d="M16,19 C14.994,19 14.092,18.563 13.465,17.87 C13.572,17.422 13.941,17.031 14.462,16.77 C14.892,17.092 15.423,17.285 16,17.285 C16.576,17.285 17.107,17.092 17.537,16.77 C18.059,17.031 18.428,17.422 18.535,17.87 C17.908,18.563 17.005,19 16,19 L16,19 Z M16,13 C16.946,13 17.714,13.768 17.714,14.714 C17.714,15.66 16.946,16.428 16,16.428 C15.053,16.428 14.285,15.66 14.285,14.714 C14.285,13.768 15.053,13 16,13 L16,13 Z M19.998,12 L12,12 L12.001,20 L19.999,20 L19.998,12 Z" id="Fill-4"></path>
        </g>
    </g>
</svg>