<?xml version="1.0" encoding="UTF-8"?>
<svg width="32px" height="32px" viewBox="0 0 32 32" version="1.1" xmlns="http://www.w3.org/2000/svg" xmlns:xlink="http://www.w3.org/1999/xlink">
    <!-- Generator: Sketch 43.2 (39069) - http://www.bohemiancoding.com/sketch -->
    <title>svg/ic_map_poi_104</title>
    <desc>Created with Sketch.</desc>
    <defs></defs>
    <g id="Assets-white-32x32" stroke="none" stroke-width="1" fill="none" fill-rule="evenodd">
        <g id="ic_map_poi_104" fill="#ffffff">
            <polygon id="Fill-3" points="19 21.99 22 21.99 22 15 19 15"></polygon>
            <polygon id="Fill-4" points="10 21.99 13 21.99 13 15 10 15"></polygon>
            <path d="M10,8.0026 C9.448,8.0026 9,7.5546 9,7.0026 C9,6.4506 9.448,6.0026 10,6.0026 L11,6.0026 L22,6.0026 C22.552,6.0026 23,6.4506 23,7.0026 C23,7.5546 22.552,8.0026 22,8.0026 L11,8.0026 L10,8.0026 Z" id="Fill-5"></path>
            <path d="M9,22.985 L23,22.985 L23,13.226 L9,13.226 L9,22.985 Z M25,23.003 L25,11.288 L25,11.059 L25,8.985 L23,8.985 L9,8.985 L7,8.985 L7,11.059 L7,11.288 L7,23.003 C5.901,23.003 5.011,23.888 5.001,24.985 L6,24.985 L8.999,24.985 L23.001,24.985 L25,24.985 L26.999,24.985 C26.989,23.888 26.098,23.003 25,23.003 L25,23.003 Z" id="Fill-7"></path>
        </g>
    </g>
</svg>