<?xml version="1.0" encoding="UTF-8"?>
<svg width="32px" height="32px" viewBox="0 0 32 32" version="1.1" xmlns="http://www.w3.org/2000/svg" xmlns:xlink="http://www.w3.org/1999/xlink">
    <!-- Generator: Sketch 43.2 (39069) - http://www.bohemiancoding.com/sketch -->
    <title>svg/ic_map_poi_121</title>
    <desc>Created with Sketch.</desc>
    <defs></defs>
    <g id="Assets-white-32x32" stroke="none" stroke-width="1" fill="none" fill-rule="evenodd">
        <g id="ic_map_poi_121" fill="#ffffff">
            <path d="M16,16 C13.794,16 12,14.204 12,11.997 C12,9.793 13.794,8 16,8 C18.206,8 20,9.793 20,11.997 C20,14.204 18.206,16 16,16" id="Fill-3"></path>
            <path d="M11.6667,16.125 C11.6637,16.126 11.6617,16.127 11.6587,16.128 C11.6607,16.13 11.6617,16.132 11.6637,16.134 L11.6667,16.125 Z" id="Fill-5"></path>
            <path d="M27,16.9583 C27,15.0213 26.021,14.0203 21.938,12.7503 L21.944,12.7723 C21.775,14.0723 21.191,15.2413 20.327,16.1443 L20.354,16.1663 C22.811,17.0153 22.735,18.2613 21.892,19.1683 C21.742,19.3363 21.582,19.4873 21.421,19.6363 C20.403,18.5523 18.186,18.0003 16,18.0003 C13.799,18.0003 11.591,18.5513 10.577,19.6343 C10.417,19.4863 10.258,19.3363 10.11,19.1703 C9.342,18.2623 9.029,17.0433 11.659,16.1283 C10.815,15.2403 10.241,14.0973 10.064,12.8253 L10.017,12.7843 C6.006,14.0233 5,15.0993 5,16.9573 C5,22.0413 9.884,26.0003 15.981,26.0003 C15.984,26.0003 15.988,25.9993 15.991,25.9993 C15.994,25.9993 15.997,26.0003 16,26.0003 C16.024,26.0003 16.047,25.9963 16.07,25.9963 C22.125,25.9573 27,21.9953 27,16.9583" id="Fill-7"></path>
        </g>
    </g>
</svg>