<?xml version="1.0" encoding="UTF-8"?>
<svg width="32px" height="32px" viewBox="0 0 32 32" version="1.1" xmlns="http://www.w3.org/2000/svg" xmlns:xlink="http://www.w3.org/1999/xlink">
    <!-- Generator: Sketch 43.2 (39069) - http://www.bohemiancoding.com/sketch -->
    <title>svg/ic_map_poi_077</title>
    <desc>Created with Sketch.</desc>
    <defs></defs>
    <g id="Assets-white-32x32" stroke="none" stroke-width="1" fill="none" fill-rule="evenodd">
        <g id="ic_map_poi_077" fill="#ffffff">
            <path d="M23.5814,10.1865 L16.5814,5.1865 C16.2334,4.9375 15.7664,4.9375 15.4184,5.1865 L8.4184,10.1865 C7.9694,10.5075 7.8654,11.1325 8.1864,11.5815 C8.5074,12.0305 9.1314,12.1355 9.5814,11.8145 L16.0004,7.2295 L22.4184,11.8145 C22.5954,11.9395 22.7984,12.0005 22.9994,12.0005 C23.3114,12.0005 23.6184,11.8545 23.8134,11.5815 C24.1344,11.1325 24.0304,10.5075 23.5814,10.1865" id="Fill-2"></path>
            <polygon id="Fill-4" points="12.302 14.5043 8.561 14.0343 8.428 15.0933"></polygon>
            <polygon id="Fill-6" points="19.6982 23.4956 23.4392 23.9656 23.5722 22.9066"></polygon>
            <path d="M15.9087,16.991 C16.7607,16.862 17.5857,17.642 17.7507,18.734 C17.9167,19.826 17.3607,20.816 16.5097,20.946 C15.6577,21.075 14.8327,20.295 14.6667,19.203 C14.5007,18.111 15.0567,17.12 15.9087,16.991" id="Fill-8"></path>
            <path d="M9.2889,18.5306 L9.2889,18.5306 C10.0139,18.4206 10.5129,17.7426 10.4029,17.0176 L10.4029,17.0176 L20.7529,15.4456 L20.7529,15.4456 C20.8629,16.1706 21.5399,16.6696 22.2649,16.5596 L22.7109,19.4946 L22.7109,19.4946 C21.9859,19.6046 21.4879,20.2816 21.5979,21.0066 L11.2469,22.5796 L11.2469,22.5786 C11.1369,21.8536 10.4599,21.3556 9.7349,21.4656 L9.7349,21.4656 L9.2889,18.5306 Z M23.9779,21.5936 L23.7679,20.2076 L23.6959,19.7366 L22.9509,14.8296 L22.8519,14.1786 L22.8519,14.1786 L22.8519,14.1786 L21.7569,14.3446 L20.9949,14.4606 L20.9949,14.4606 L8.0219,16.4316 L8.1249,17.1076 L8.3039,18.2876 L8.3039,18.2886 L8.8659,21.9896 L8.8659,21.9896 L9.1479,23.8466 L9.1479,23.8466 L9.3609,23.8136 L11.0049,23.5646 L11.0049,23.5646 L22.1219,21.8756 L23.9779,21.5936 L23.9779,21.5936 Z" id="Fill-10"></path>
        </g>
    </g>
</svg>