<?xml version="1.0" encoding="UTF-8"?>
<svg width="32px" height="32px" viewBox="0 0 32 32" version="1.1" xmlns="http://www.w3.org/2000/svg" xmlns:xlink="http://www.w3.org/1999/xlink">
    <!-- Generator: Sketch 43.2 (39069) - http://www.bohemiancoding.com/sketch -->
    <title>svg/ic_map_poi_069</title>
    <desc>Created with Sketch.</desc>
    <defs></defs>
    <g id="Assets-white-32x32" stroke="none" stroke-width="1" fill="none" fill-rule="evenodd">
        <g id="ic_map_poi_069" fill="#ffffff">
            <path d="M22,16.333 C22,16.7 21.7,17 21.334,17 L10.667,17 C10.3,17 10,16.7 10,16.333 L10,9.667 C10,9.3 10.3,9 10.667,9 L21.334,9 C21.7,9 22,9.3 22,9.667 L22,16.333 Z M20.5,22 C19.672,22 19,21.328 19,20.5 C19,19.672 19.672,19 20.5,19 C21.329,19 22,19.672 22,20.5 C22,21.328 21.329,22 20.5,22 L20.5,22 Z M11.5,22 C10.672,22 10,21.328 10,20.5 C10,19.672 10.672,19 11.5,19 C12.329,19 13,19.672 13,20.5 C13,21.328 12.329,22 11.5,22 L11.5,22 Z M14.5,6 L17.5,6 C18.052,6 18.5,6.448 18.5,7 C18.5,7.552 18.052,8 17.5,8 L14.5,8 C13.948,8 13.5,7.552 13.5,7 C13.5,6.448 13.948,6 14.5,6 L14.5,6 Z M22.667,6 L19.658,6 C19.451,5.419 18.901,5 18.25,5 L13.75,5 C13.098,5 12.549,5.419 12.342,6 L9.334,6 C8.601,6 8,6.6 8,7.333 L8,24.667 C8,25.4 8.601,26 9.334,26 L10.667,26 C11.4,26 12,25.4 12,24.667 L12,24 L20,24 L20,24.667 C20,25.4 20.601,26 21.334,26 L22.667,26 C23.4,26 24,25.4 24,24.667 L24,7.667 C24,6.934 23.4,6 22.667,6 L22.667,6 Z" id="Fill-2"></path>
        </g>
    </g>
</svg>