<?xml version="1.0" encoding="UTF-8"?>
<svg width="32px" height="32px" viewBox="0 0 32 32" version="1.1" xmlns="http://www.w3.org/2000/svg" xmlns:xlink="http://www.w3.org/1999/xlink">
    <!-- Generator: Sketch 43.2 (39069) - http://www.bohemiancoding.com/sketch -->
    <title>svg/ic_map_poi_122</title>
    <desc>Created with Sketch.</desc>
    <defs></defs>
    <g id="Assets-white-32x32" stroke="none" stroke-width="1" fill="none" fill-rule="evenodd">
        <g id="ic_map_poi_122" fill="#ffffff">
            <path d="M17.9453,8.0003 C17.9453,9.1043 17.0503,10.0003 15.9453,10.0003 C14.8413,10.0003 13.9453,9.1043 13.9453,8.0003 C13.9453,6.8953 14.8413,6.0003 15.9453,6.0003 C17.0503,6.0003 17.9453,6.8953 17.9453,8.0003" id="Fill-3"></path>
            <path d="M22,14.7581 C22,16.4081 21.325,17.7581 20.5,17.7581 C19.675,17.7581 19,16.4081 19,14.7581 L19,12.7621 C19,11.1121 19.675,9.7621 20.5,9.7621 C21.325,9.7621 22,11.1121 22,12.7621 L22,14.7581 Z" id="Fill-5"></path>
            <path d="M18.6835,25.6556 L16.9605,18.0156 L16.9895,18.0066 C17.5335,17.9116 17.9655,17.5726 17.9835,17.0306 L18.0005,11.6076 C17.9155,11.1236 17.4935,10.8026 17.0185,10.8006 C17.0165,10.7936 17.0145,10.7866 17.0115,10.7806 L16.1165,10.7806 C15.7105,10.7806 14.7215,10.7886 13.8885,11.2076 L9.1475,13.5946 C8.6275,13.7796 8.3545,14.3506 8.5395,14.8716 C8.6235,15.1096 8.7955,15.2876 8.9995,15.4016 L8.9995,16.5066 L8.9995,25.2576 L8.9995,26.5066 C8.9995,26.7826 9.2235,27.0066 9.4995,27.0066 C9.7765,27.0066 9.9995,26.7826 9.9995,26.5066 L9.9995,25.2576 L9.9995,16.5066 L9.9995,15.4146 L12.9455,14.3706 L12.9455,17.3336 C12.9455,17.3596 12.9585,17.3816 12.9605,17.4076 L12.9375,25.9596 C12.9375,26.5296 13.3995,26.9926 13.9695,26.9926 C14.5405,26.9926 15.0025,26.5296 15.0025,25.9596 L15.0245,18.5346 C15.0385,18.5336 15.0515,18.5366 15.0645,18.5356 L16.8525,26.4576 C17.0735,26.9636 17.6625,27.1946 18.1695,26.9716 C18.6755,26.7506 18.9055,26.1606 18.6835,25.6556" id="Fill-7"></path>
        </g>
    </g>
</svg>