<?xml version="1.0" encoding="UTF-8"?>
<svg width="32px" height="32px" viewBox="0 0 32 32" version="1.1" xmlns="http://www.w3.org/2000/svg" xmlns:xlink="http://www.w3.org/1999/xlink">
    <!-- Generator: Sketch 43.2 (39069) - http://www.bohemiancoding.com/sketch -->
    <title>svg/ic_map_poi_039</title>
    <desc>Created with Sketch.</desc>
    <defs></defs>
    <g id="Assets-white-32x32" stroke="none" stroke-width="1" fill="none" fill-rule="evenodd">
        <g id="ic_map_poi_039" fill="#ffffff">
            <path d="M13.9951,14.0205 L14.0001,13.0005 L13.5001,13.0005 C13.2241,13.0005 13.0001,12.7765 13.0001,12.5005 C13.0001,12.2235 13.2241,12.0005 13.5001,12.0005 L18.5001,12.0005 C18.7761,12.0005 19.0001,12.2235 19.0001,12.5005 C19.0001,12.7765 18.7761,13.0005 18.5001,13.0005 L18.0001,13.0005 C18.0001,13.0005 17.9981,12.7865 17.9981,14.0155 C17.9981,14.0155 17.9971,14.0325 17.9971,14.0415 L17.9981,14.0415 L17.9981,15.0155 C17.9981,16.2455 17.0881,17.0135 16.0201,17.0135 C14.9141,17.0135 13.9911,16.3745 13.9911,14.9185 L13.9951,14.0405 L13.9961,14.0405 C13.9961,14.0335 13.9961,14.0275 13.9951,14.0205 L13.9951,14.0205 Z M18.9991,14.0975 C22.6641,14.3475 24.0001,15.0005 24.0001,15.0005 L27.0151,14.0005 L23.0061,10.0665 L15.9881,8.0005 L8.9691,10.0125 L5.0641,14.0005 L7.9771,15.0005 C7.9771,15.0005 9.3161,14.3455 12.9951,14.0955 L12.9911,14.9135 C12.9911,15.8065 13.2791,16.5525 13.7731,17.0925 C9.5021,17.2945 7.9761,18.0415 7.9761,18.0415 C7.9761,19.1535 11.5631,21.9775 15.9881,21.9775 C20.4131,21.9775 24.0001,19.1535 24.0001,18.0415 C24.0001,18.0415 22.4741,17.2945 18.1971,17.0915 C18.6951,16.5605 18.9981,15.8395 18.9981,15.0155 L18.9991,14.0975 Z" id="Fill-2"></path>
        </g>
    </g>
</svg>