<?xml version="1.0" encoding="UTF-8"?>
<svg width="32px" height="32px" viewBox="0 0 32 32" version="1.1" xmlns="http://www.w3.org/2000/svg" xmlns:xlink="http://www.w3.org/1999/xlink">
    <!-- Generator: Sketch 43.2 (39069) - http://www.bohemiancoding.com/sketch -->
    <title>svg/ic_map_poi_016</title>
    <desc>Created with Sketch.</desc>
    <defs></defs>
    <g id="Assets-white-32x32" stroke="none" stroke-width="1" fill="none" fill-rule="evenodd">
        <g id="ic_map_poi_016" fill="#ffffff">
            <path d="M23.001,15 L19.998,15 L19.997,12.5 L20,12.5 C20,11.672 20.672,11 21.5,11 C22.328,11 23,11.672 23,12.5 L23.001,15 Z M18,15 L14.001,15 L14,12.5 C14,11.672 14.672,11 15.5,11 L16.572,11 C17.329,11 18,11.672 18,12.5 L18,15 Z M12.002,15 L8.999,15 L8.999,12.5 L9,12.5 C9,11.672 9.672,11 10.5,11 C11.328,11 12,11.672 12,12.5 L12.001,12.5 L12.002,15 Z M25,11 C25,9.895 24.105,9 23,9 L9,9 C7.896,9 7,9.895 7,11 C7,11.006 7.001,11.012 7.001,11.019 L7,11.019 L7,24 L9,24 L9,18.5 C9,17.672 9.672,17 10.5,17 C11.328,17 12,17.672 12,18.5 L12,24 L14,24 L14,18.5 C14,17.672 14.672,17 15.5,17 L16.5,17 C17.328,17 18,17.672 18,18.5 L18,24 L20,24 L20,18.5 C20,17.672 20.672,17 21.5,17 C22.328,17 23,17.672 23,18.5 L23,24 L25,24 L25,11.019 L24.999,11.019 C24.999,11.012 25,11.006 25,11 L25,11 Z" id="Fill-2"></path>
        </g>
    </g>
</svg>