<?xml version="1.0" encoding="UTF-8"?>
<svg width="32px" height="32px" viewBox="0 0 32 32" version="1.1" xmlns="http://www.w3.org/2000/svg" xmlns:xlink="http://www.w3.org/1999/xlink">
    <!-- Generator: Sketch 43.2 (39069) - http://www.bohemiancoding.com/sketch -->
    <title>svg/ic_map_poi_047</title>
    <desc>Created with Sketch.</desc>
    <defs></defs>
    <g id="Assets-white-32x32" stroke="none" stroke-width="1" fill="none" fill-rule="evenodd">
        <g id="ic_map_poi_047" fill="#ffffff">
            <path d="M13,10.9971 L13,9.0041 L14.981,9.0041 L14.981,7.0001 L16.985,7.0001 L16.985,9.0041 L19,9.0041 L19,10.9971 L16.985,10.9971 L16.985,13.0001 L14.981,13.0001 L14.981,10.9971 L13,10.9971 Z M24,13.0181 L23.018,8.0321 C23.018,8.0321 20.94,6.0001 16.116,6.0001 C11.293,6.0001 9.024,8.0641 9.024,8.0641 L8,13.0181 C8,13.0181 9.997,14.0001 15.997,14.0001 C21.996,14.0001 24,13.0181 24,13.0181 L24,13.0181 Z" id="Fill-2"></path>
            <path d="M19.6073,20.5042 C21.1823,20.0532 22.1823,19.3872 22.9923,18.9582 L22.9823,17.0092 C22.4293,17.4612 19.4523,19.0002 16.0033,19.0002 C12.4073,19.0002 9.4133,17.3832 9.0223,17.0472 L8.9883,18.9852 C9.6913,19.3972 10.7243,20.0862 12.3623,20.5382 L12.9033,22.8852 C11.6243,22.6732 10.6443,22.3462 9.9913,21.9952 L10.0053,24.0002 C11.2193,24.5452 13.5703,24.9912 15.9103,24.9912 C18.4313,24.9912 20.5893,24.5102 21.9923,24.0002 L22.0193,21.9912 C21.3483,22.3512 20.3293,22.6882 19.0013,22.9002 L19.6073,20.5042 Z" id="Fill-4"></path>
        </g>
    </g>
</svg>