<?xml version="1.0" encoding="UTF-8"?>
<svg width="32px" height="32px" viewBox="0 0 32 32" version="1.1" xmlns="http://www.w3.org/2000/svg" xmlns:xlink="http://www.w3.org/1999/xlink">
    <!-- Generator: Sketch 43.2 (39069) - http://www.bohemiancoding.com/sketch -->
    <title>svg/ic_map_poi_050</title>
    <desc>Created with Sketch.</desc>
    <defs></defs>
    <g id="Assets-white-32x32" stroke="none" stroke-width="1" fill="none" fill-rule="evenodd">
        <g id="ic_map_poi_050" fill="#ffffff">
            <path d="M14.7127,23.6599 C14.7737,24.1079 14.8397,24.5259 14.9117,24.9099 C15.2667,24.9659 15.6287,25.0029 15.9997,25.0029 C16.3927,25.0029 16.7747,24.9629 17.1497,24.9009 C17.2207,24.5189 17.2867,24.1039 17.3467,23.6599 C16.9157,23.6989 16.4767,23.7209 16.0297,23.7209 C15.5827,23.7209 15.1427,23.6989 14.7127,23.6599" id="Fill-2"></path>
            <path d="M22.7304,16.0968 C22.6154,15.6908 22.4644,15.3018 22.2814,14.9288 C21.9564,14.7238 21.5974,14.5358 21.2094,14.3658 C21.3394,14.8428 21.4464,15.3398 21.5264,15.8538 C21.9474,15.9278 22.3494,16.0098 22.7304,16.0968" id="Fill-4"></path>
            <path d="M20.6963,18.0544 C20.6963,17.5614 20.6733,17.0814 20.6303,16.6174 C20.0133,16.5524 19.3533,16.4994 18.6583,16.4604 C18.6833,16.9804 18.6963,17.5124 18.6963,18.0544 C18.6963,18.5964 18.6833,19.1284 18.6583,19.6484 C19.3533,19.6094 20.0133,19.5564 20.6303,19.4914 C20.6733,19.0274 20.6963,18.5474 20.6963,18.0544" id="Fill-6"></path>
            <path d="M17.973,11.2899 C18.066,11.6889 18.152,12.1129 18.23,12.5579 C18.744,12.6379 19.242,12.7439 19.718,12.8749 C19.538,12.4619 19.335,12.0829 19.114,11.7409 C18.75,11.5589 18.37,11.4059 17.973,11.2899" id="Fill-8"></path>
            <path d="M19.7184,23.2337 C19.2414,23.3647 18.7444,23.4707 18.2304,23.5507 C18.1584,23.9557 18.0804,24.3427 17.9974,24.7097 C18.4194,24.5847 18.8224,24.4197 19.2074,24.2207 C19.3924,23.9177 19.5634,23.5877 19.7184,23.2337" id="Fill-10"></path>
            <path d="M20.5156,20.4141 C19.9046,20.4991 19.2636,20.5701 18.5966,20.6211 C18.5446,21.2881 18.4746,21.9301 18.3896,22.5401 C19.0016,22.4441 19.5816,22.3111 20.1206,22.1461 C20.2866,21.6061 20.4196,21.0271 20.5156,20.4141" id="Fill-12"></path>
            <path d="M17.6963,18.0544 C17.6963,17.4924 17.6863,16.9464 17.6683,16.4154 C17.1383,16.3974 16.5913,16.3874 16.0293,16.3874 C15.4683,16.3874 14.9213,16.3974 14.3913,16.4154 C14.3733,16.9464 14.3633,17.4924 14.3633,18.0544 C14.3633,18.6164 14.3733,19.1624 14.3913,19.6934 C14.9213,19.7114 15.4683,19.7214 16.0293,19.7214 C16.5913,19.7214 17.1383,19.7114 17.6683,19.6934 C17.6863,19.1624 17.6963,18.6164 17.6963,18.0544" id="Fill-14"></path>
            <path d="M23,18.0031 C23,17.6411 22.964,17.2881 22.911,16.9411 C22.52,16.8681 22.093,16.7991 21.635,16.7371 C21.674,17.1681 21.696,17.6071 21.696,18.0541 C21.696,18.5021 21.675,18.9411 21.635,19.3711 C22.086,19.3101 22.508,19.2431 22.895,19.1711 C22.959,18.7901 23,18.4021 23,18.0031" id="Fill-16"></path>
            <path d="M13.6698,13.5684 C13.0568,13.6644 12.4778,13.7974 11.9378,13.9634 C11.7728,14.5024 11.6398,15.0824 11.5438,15.6944 C12.1538,15.6094 12.7958,15.5394 13.4628,15.4874 C13.5138,14.8204 13.5848,14.1794 13.6698,13.5684" id="Fill-18"></path>
            <path d="M14.4355,15.4259 C14.9555,15.4009 15.4875,15.3879 16.0295,15.3879 C16.5715,15.3879 17.1035,15.4009 17.6235,15.4259 C17.5845,14.7299 17.5315,14.0699 17.4665,13.4539 C17.0025,13.4109 16.5235,13.3879 16.0295,13.3879 C15.5365,13.3879 15.0565,13.4109 14.5925,13.4539 C14.5275,14.0699 14.4745,14.7299 14.4355,15.4259" id="Fill-20"></path>
            <path d="M13.6698,22.5404 C13.5848,21.9294 13.5138,21.2884 13.4628,20.6214 C12.7958,20.5694 12.1538,20.4994 11.5438,20.4144 C11.6398,21.0264 11.7728,21.6064 11.9378,22.1454 C12.4778,22.3114 13.0568,22.4444 13.6698,22.5404" id="Fill-22"></path>
            <path d="M10.8503,21.7432 C10.7193,21.2662 10.6133,20.7692 10.5333,20.2552 C10.0993,20.1782 9.6853,20.0942 9.2943,20.0042 C9.4153,20.4102 9.5743,20.7982 9.7633,21.1702 C10.0923,21.3792 10.4563,21.5712 10.8503,21.7432" id="Fill-24"></path>
            <path d="M17.3466,12.4488 C17.2806,11.9638 17.2076,11.5128 17.1296,11.1028 C16.7616,11.0428 16.3856,11.0028 15.9996,11.0028 C15.6356,11.0028 15.2806,11.0398 14.9316,11.0928 C14.8526,11.5058 14.7786,11.9598 14.7126,12.4488 C15.1436,12.4098 15.5826,12.3878 16.0296,12.3878 C16.4766,12.3878 16.9166,12.4098 17.3466,12.4488" id="Fill-26"></path>
            <path d="M9,18.0031 C9,18.3981 9.041,18.7821 9.103,19.1591 C9.507,19.2361 9.949,19.3071 10.424,19.3711 C10.385,18.9411 10.363,18.5021 10.363,18.0541 C10.363,17.6071 10.385,17.1681 10.424,16.7371 C9.943,16.8031 9.495,16.8751 9.087,16.9521 C9.035,17.2961 9,17.6451 9,18.0031" id="Fill-28"></path>
            <path d="M16.0297,26.3877 C11.4267,26.3877 7.6967,22.6567 7.6967,18.0547 C7.6967,13.4517 11.4267,9.7207 16.0297,9.7207 C20.6317,9.7207 24.3627,13.4517 24.3627,18.0547 C24.3627,22.6567 20.6317,26.3877 16.0297,26.3877 M17.9597,9.2667 C17.7747,8.3537 16.9677,7.6667 15.9997,7.6667 C15.0267,7.6667 14.2177,8.3617 14.0387,9.2827 C10.0277,10.1897 7.0297,13.7687 7.0297,18.0547 C7.0297,23.0247 11.0587,27.0547 16.0297,27.0547 C20.9997,27.0547 25.0297,23.0247 25.0297,18.0547 C25.0297,13.7467 22.0017,10.1517 17.9597,9.2667" id="Fill-30"></path>
            <path d="M16,6.6667 C16.229,6.6667 16.452,6.6947 16.667,6.7437 L16.667,3.9997 L15.333,3.9997 L15.333,6.7437 C15.548,6.6947 15.771,6.6667 16,6.6667" id="Fill-32"></path>
            <polygon id="Fill-34" points="21 4.6667 21.236 5.7647 22.333 5.9997 21.236 6.2357 21 7.3337 20.764 6.2357 19.667 5.9997 20.764 5.7647"></polygon>
            <polygon id="Fill-36" points="26 24.6667 26.236 25.7647 27.333 25.9997 26.236 26.2357 26 27.3337 25.764 26.2357 24.667 25.9997 25.764 25.7647"></polygon>
            <path d="M25.9245,9.3741 L27.6665,9.0001 L25.9245,8.6261 C25.8235,8.3751 25.6245,8.1771 25.3745,8.0751 L24.9995,6.3331 L24.6255,8.0751 C24.3755,8.1771 24.1765,8.3751 24.0755,8.6261 L22.3335,9.0001 L24.0755,9.3741 C24.1765,9.6251 24.3755,9.8231 24.6255,9.9241 L24.9995,11.6671 L25.3745,9.9241 C25.6245,9.8231 25.8235,9.6251 25.9245,9.3741" id="Fill-38"></path>
            <path d="M7.9245,7.3741 L9.6665,7.0001 L7.9245,6.6261 C7.8235,6.3751 7.6245,6.1771 7.3745,6.0751 L6.9995,4.3331 L6.6255,6.0751 C6.3755,6.1771 6.1765,6.3751 6.0755,6.6261 L4.3335,7.0001 L6.0755,7.3741 C6.1765,7.6251 6.3755,7.8231 6.6255,7.9241 L6.9995,9.6671 L7.3745,7.9241 C7.6245,7.8231 7.8235,7.6251 7.9245,7.3741" id="Fill-40"></path>
        </g>
    </g>
</svg>